<?xml version="1.0" encoding="UTF-8" standalone="no"?>
<!DOCTYPE svg PUBLIC "-//W3C//DTD SVG 1.1//EN"
 "http://www.w3.org/Graphics/SVG/1.1/DTD/svg11.dtd">
<!-- Generated by graphviz version 2.40.1 (20161225.0304)
 -->
<!-- Title: dependency&#45;cruiser output Pages: 1 -->
<svg width="539pt" height="369pt"
 viewBox="0.00 0.00 538.50 369.04" xmlns="http://www.w3.org/2000/svg" xmlns:xlink="http://www.w3.org/1999/xlink">
<g id="graph0" class="graph" transform="scale(1 1) rotate(0) translate(4 365.0426)">
<title>dependency&#45;cruiser output</title>
<polygon fill="#ffffff" stroke="transparent" points="-4,4 -4,-365.0426 534.5,-365.0426 534.5,4 -4,4"/>
<g id="clust1" class="cluster">
<title>cluster_commons</title>
<path fill="#ffffff" stroke="#000000" stroke-width="2" d="M152,-280.2384C152,-280.2384 252,-280.2384 252,-280.2384 258,-280.2384 264,-286.2384 264,-292.2384 264,-292.2384 264,-320.2384 264,-320.2384 264,-326.2384 258,-332.2384 252,-332.2384 252,-332.2384 152,-332.2384 152,-332.2384 146,-332.2384 140,-326.2384 140,-320.2384 140,-320.2384 140,-292.2384 140,-292.2384 140,-286.2384 146,-280.2384 152,-280.2384"/>
<text text-anchor="middle" x="202" y="-321.0384" font-family="Helvetica,sans-Serif" font-weight="bold" font-size="9.00" fill="#000000">commons</text>
</g>
<g id="clust2" class="cluster">
<title>cluster_config</title>
<path fill="#ffffff" stroke="#000000" stroke-width="2" d="M74,-280.2384C74,-280.2384 120,-280.2384 120,-280.2384 126,-280.2384 132,-286.2384 132,-292.2384 132,-292.2384 132,-320.2384 132,-320.2384 132,-326.2384 126,-332.2384 120,-332.2384 120,-332.2384 74,-332.2384 74,-332.2384 68,-332.2384 62,-326.2384 62,-320.2384 62,-320.2384 62,-292.2384 62,-292.2384 62,-286.2384 68,-280.2384 74,-280.2384"/>
<text text-anchor="middle" x="97" y="-321.0384" font-family="Helvetica,sans-Serif" font-weight="bold" font-size="9.00" fill="#000000">config</text>
</g>
<g id="clust3" class="cluster">
<title>cluster_log</title>
<path fill="#ffffff" stroke="#000000" stroke-width="2" d="M388,-138.2384C388,-138.2384 510.5,-138.2384 510.5,-138.2384 516.5,-138.2384 522.5,-144.2384 522.5,-150.2384 522.5,-150.2384 522.5,-208.2384 522.5,-208.2384 522.5,-214.2384 516.5,-220.2384 510.5,-220.2384 510.5,-220.2384 388,-220.2384 388,-220.2384 382,-220.2384 376,-214.2384 376,-208.2384 376,-208.2384 376,-150.2384 376,-150.2384 376,-144.2384 382,-138.2384 388,-138.2384"/>
<text text-anchor="middle" x="449.25" y="-209.0384" font-family="Helvetica,sans-Serif" font-weight="bold" font-size="9.00" fill="#000000">log</text>
</g>
<g id="clust4" class="cluster">
<title>cluster_store</title>
<path fill="#ffffff" stroke="#000000" stroke-width="2" d="M169.5,-56.2384C169.5,-56.2384 356,-56.2384 356,-56.2384 362,-56.2384 368,-62.2384 368,-68.2384 368,-68.2384 368,-126.2384 368,-126.2384 368,-132.2384 362,-138.2384 356,-138.2384 356,-138.2384 169.5,-138.2384 169.5,-138.2384 163.5,-138.2384 157.5,-132.2384 157.5,-126.2384 157.5,-126.2384 157.5,-68.2384 157.5,-68.2384 157.5,-62.2384 163.5,-56.2384 169.5,-56.2384"/>
<text text-anchor="middle" x="262.75" y="-127.0384" font-family="Helvetica,sans-Serif" font-weight="bold" font-size="9.00" fill="#000000">store</text>
</g>
<!-- api.ts -->
<g id="node1" class="node">
<title>api.ts</title>
<g id="a_node1"><a xlink:href="api.ts" xlink:title="api.ts">
<path fill="#ddfeff" stroke="#000000" d="M337,-164.2384C337,-164.2384 295,-164.2384 295,-164.2384 292,-164.2384 289,-161.2384 289,-158.2384 289,-158.2384 289,-152.2384 289,-152.2384 289,-149.2384 292,-146.2384 295,-146.2384 295,-146.2384 337,-146.2384 337,-146.2384 340,-146.2384 343,-149.2384 343,-152.2384 343,-152.2384 343,-158.2384 343,-158.2384 343,-161.2384 340,-164.2384 337,-164.2384"/>
<text text-anchor="middle" x="316" y="-153.0384" font-family="Helvetica,sans-Serif" font-size="9.00" fill="#000000">api.ts</text>
</a>
</g>
</g>
<!-- constants.ts -->
<g id="node2" class="node">
<title>constants.ts</title>
<g id="a_node2"><a xlink:href="constants.ts" xlink:title="constants.ts">
<path fill="#ddfeff" stroke="#000000" d="M441.5,-68.2384C441.5,-68.2384 388.5,-68.2384 388.5,-68.2384 385.5,-68.2384 382.5,-65.2384 382.5,-62.2384 382.5,-62.2384 382.5,-56.2384 382.5,-56.2384 382.5,-53.2384 385.5,-50.2384 388.5,-50.2384 388.5,-50.2384 441.5,-50.2384 441.5,-50.2384 444.5,-50.2384 447.5,-53.2384 447.5,-56.2384 447.5,-56.2384 447.5,-62.2384 447.5,-62.2384 447.5,-65.2384 444.5,-68.2384 441.5,-68.2384"/>
<text text-anchor="middle" x="415" y="-57.0384" font-family="Helvetica,sans-Serif" font-size="9.00" fill="#000000">constants.ts</text>
</a>
</g>
</g>
<!-- api.ts&#45;&gt;constants.ts -->
<g id="edge1" class="edge">
<title>api.ts&#45;&gt;constants.ts</title>
<path fill="none" stroke="#000000" stroke-width="2" stroke-opacity="0.200000" d="M343.2164,-152.0891C351.8016,-150.0562 360.8913,-146.7177 368,-141.2384 390.4186,-123.9587 403.9647,-92.7345 410.4164,-74.2039"/>
<polygon fill="#000000" fill-opacity="0.200000" stroke="#000000" stroke-width="2" stroke-opacity="0.200000" points="412.4309,-74.8009 412.3349,-68.4447 408.4462,-73.4735 412.4309,-74.8009"/>
</g>
<!-- log/progress.ts -->
<g id="node3" class="node">
<title>log/progress.ts</title>
<g id="a_node3"><a xlink:href="log/progress.ts" xlink:title="progress.ts">
<path fill="#ddfeff" stroke="#000000" d="M440,-164.2384C440,-164.2384 390,-164.2384 390,-164.2384 387,-164.2384 384,-161.2384 384,-158.2384 384,-158.2384 384,-152.2384 384,-152.2384 384,-149.2384 387,-146.2384 390,-146.2384 390,-146.2384 440,-146.2384 440,-146.2384 443,-146.2384 446,-149.2384 446,-152.2384 446,-152.2384 446,-158.2384 446,-158.2384 446,-161.2384 443,-164.2384 440,-164.2384"/>
<text text-anchor="middle" x="415" y="-153.0384" font-family="Helvetica,sans-Serif" font-size="9.00" fill="#000000">progress.ts</text>
</a>
</g>
</g>
<!-- api.ts&#45;&gt;log/progress.ts -->
<g id="edge2" class="edge">
<title>api.ts&#45;&gt;log/progress.ts</title>
<path fill="none" stroke="#000000" stroke-width="2" stroke-opacity="0.200000" d="M343.0522,-155.2384C353.6792,-155.2384 366.0576,-155.2384 377.5205,-155.2384"/>
<polygon fill="#000000" fill-opacity="0.200000" stroke="#000000" stroke-width="2" stroke-opacity="0.200000" points="377.7777,-157.3385 383.7777,-155.2384 377.7777,-153.1385 377.7777,-157.3385"/>
</g>
<!-- log/spinner.ts -->
<g id="node4" class="node">
<title>log/spinner.ts</title>
<g id="a_node4"><a xlink:href="log/spinner.ts" xlink:title="spinner.ts">
<path fill="#ddfeff" stroke="#000000" d="M437,-194.2384C437,-194.2384 393,-194.2384 393,-194.2384 390,-194.2384 387,-191.2384 387,-188.2384 387,-188.2384 387,-182.2384 387,-182.2384 387,-179.2384 390,-176.2384 393,-176.2384 393,-176.2384 437,-176.2384 437,-176.2384 440,-176.2384 443,-179.2384 443,-182.2384 443,-182.2384 443,-188.2384 443,-188.2384 443,-191.2384 440,-194.2384 437,-194.2384"/>
<text text-anchor="middle" x="415" y="-183.0384" font-family="Helvetica,sans-Serif" font-size="9.00" fill="#000000">spinner.ts</text>
</a>
</g>
</g>
<!-- api.ts&#45;&gt;log/spinner.ts -->
<g id="edge3" class="edge">
<title>api.ts&#45;&gt;log/spinner.ts</title>
<path fill="none" stroke="#000000" stroke-width="2" stroke-opacity="0.200000" d="M343.0522,-163.4361C354.7616,-166.9844 368.5973,-171.177 380.9918,-174.9329"/>
<polygon fill="#000000" fill-opacity="0.200000" stroke="#000000" stroke-width="2" stroke-opacity="0.200000" points="380.5938,-177.0065 386.945,-176.7369 381.8119,-172.987 380.5938,-177.0065"/>
</g>
<!-- log/printer.ts -->
<g id="node8" class="node">
<title>log/printer.ts</title>
<g id="a_node8"><a xlink:href="log/printer.ts" xlink:title="printer.ts">
<path fill="#ddfeff" stroke="#000000" d="M508.5,-179.2384C508.5,-179.2384 466.5,-179.2384 466.5,-179.2384 463.5,-179.2384 460.5,-176.2384 460.5,-173.2384 460.5,-173.2384 460.5,-167.2384 460.5,-167.2384 460.5,-164.2384 463.5,-161.2384 466.5,-161.2384 466.5,-161.2384 508.5,-161.2384 508.5,-161.2384 511.5,-161.2384 514.5,-164.2384 514.5,-167.2384 514.5,-167.2384 514.5,-173.2384 514.5,-173.2384 514.5,-176.2384 511.5,-179.2384 508.5,-179.2384"/>
<text text-anchor="middle" x="487.5" y="-168.0384" font-family="Helvetica,sans-Serif" font-size="9.00" fill="#000000">printer.ts</text>
</a>
</g>
</g>
<!-- log/progress.ts&#45;&gt;log/printer.ts -->
<g id="edge6" class="edge">
<title>log/progress.ts&#45;&gt;log/printer.ts</title>
<path fill="none" stroke="#000000" stroke-width="2" stroke-opacity="0.200000" d="M446.1673,-161.6868C448.8442,-162.2407 451.5589,-162.8023 454.2513,-163.3594"/>
<polygon fill="#000000" fill-opacity="0.200000" stroke="#000000" stroke-width="2" stroke-opacity="0.200000" points="454.164,-165.4857 460.465,-164.645 455.015,-161.3728 454.164,-165.4857"/>
</g>
<!-- log/spinner.ts&#45;&gt;log/printer.ts -->
<g id="edge7" class="edge">
<title>log/spinner.ts&#45;&gt;log/printer.ts</title>
<path fill="none" stroke="#000000" stroke-width="2" stroke-opacity="0.200000" d="M443.238,-179.3961C446.8039,-178.6583 450.4787,-177.898 454.1148,-177.1457"/>
<polygon fill="#000000" fill-opacity="0.200000" stroke="#000000" stroke-width="2" stroke-opacity="0.200000" points="454.7215,-179.1648 460.1716,-175.8926 453.8705,-175.0519 454.7215,-179.1648"/>
</g>
<!-- commons/ComparableVersion.ts -->
<g id="node5" class="node">
<title>commons/ComparableVersion.ts</title>
<g id="a_node5"><a xlink:href="commons/ComparableVersion.ts" xlink:title="ComparableVersion.ts">
<path fill="#ddfeff" stroke="#000000" d="M250,-306.2384C250,-306.2384 154,-306.2384 154,-306.2384 151,-306.2384 148,-303.2384 148,-300.2384 148,-300.2384 148,-294.2384 148,-294.2384 148,-291.2384 151,-288.2384 154,-288.2384 154,-288.2384 250,-288.2384 250,-288.2384 253,-288.2384 256,-291.2384 256,-294.2384 256,-294.2384 256,-300.2384 256,-300.2384 256,-303.2384 253,-306.2384 250,-306.2384"/>
<text text-anchor="middle" x="202" y="-295.0384" font-family="Helvetica,sans-Serif" font-size="9.00" fill="#000000">ComparableVersion.ts</text>
</a>
</g>
</g>
<!-- config/config.ts -->
<g id="node6" class="node">
<title>config/config.ts</title>
<g id="a_node6"><a xlink:href="config/config.ts" xlink:title="config.ts">
<path fill="#ddfeff" stroke="#000000" d="M118,-306.2384C118,-306.2384 76,-306.2384 76,-306.2384 73,-306.2384 70,-303.2384 70,-300.2384 70,-300.2384 70,-294.2384 70,-294.2384 70,-291.2384 73,-288.2384 76,-288.2384 76,-288.2384 118,-288.2384 118,-288.2384 121,-288.2384 124,-291.2384 124,-294.2384 124,-294.2384 124,-300.2384 124,-300.2384 124,-303.2384 121,-306.2384 118,-306.2384"/>
<text text-anchor="middle" x="97" y="-295.0384" font-family="Helvetica,sans-Serif" font-size="9.00" fill="#000000">config.ts</text>
</a>
</g>
</g>
<!-- config/config.ts&#45;&gt;log/spinner.ts -->
<g id="edge5" class="edge">
<title>config/config.ts&#45;&gt;log/spinner.ts</title>
<path fill="none" stroke="#000000" stroke-width="2" stroke-opacity="0.200000" d="M104.0298,-306.535C111.6958,-315.8252 124.9058,-329.5246 140,-335.2384 191.5418,-354.7493 212.8797,-355.8284 264,-335.2384 332.4067,-307.6859 385.9281,-231.9265 406.1972,-199.8704"/>
<polygon fill="#000000" fill-opacity="0.200000" stroke="#000000" stroke-width="2" stroke-opacity="0.200000" points="408.2048,-200.6189 409.591,-194.4149 404.6385,-198.4003 408.2048,-200.6189"/>
</g>
<!-- config/config.ts&#45;&gt;commons/ComparableVersion.ts -->
<g id="edge4" class="edge">
<title>config/config.ts&#45;&gt;commons/ComparableVersion.ts</title>
<path fill="none" stroke="#000000" stroke-width="2" stroke-opacity="0.200000" d="M124.0401,-297.2384C129.5088,-297.2384 135.4638,-297.2384 141.5651,-297.2384"/>
<polygon fill="#000000" fill-opacity="0.200000" stroke="#000000" stroke-width="2" stroke-opacity="0.200000" points="141.7027,-299.3385 147.7027,-297.2384 141.7026,-295.1385 141.7027,-299.3385"/>
</g>
<!-- interfaces.ts -->
<g id="node7" class="node">
<title>interfaces.ts</title>
<g id="a_node7"><a xlink:href="interfaces.ts" xlink:title="interfaces.ts">
<path fill="#ddfeff" stroke="#000000" d="M228.5,-220.2384C228.5,-220.2384 175.5,-220.2384 175.5,-220.2384 172.5,-220.2384 169.5,-217.2384 169.5,-214.2384 169.5,-214.2384 169.5,-208.2384 169.5,-208.2384 169.5,-205.2384 172.5,-202.2384 175.5,-202.2384 175.5,-202.2384 228.5,-202.2384 228.5,-202.2384 231.5,-202.2384 234.5,-205.2384 234.5,-208.2384 234.5,-208.2384 234.5,-214.2384 234.5,-214.2384 234.5,-217.2384 231.5,-220.2384 228.5,-220.2384"/>
<text text-anchor="middle" x="202" y="-209.0384" font-family="Helvetica,sans-Serif" font-size="9.00" fill="#000000">interfaces.ts</text>
</a>
</g>
</g>
<!-- rusted.ts -->
<g id="node9" class="node">
<title>rusted.ts</title>
<g id="a_node9"><a xlink:href="rusted.ts" xlink:title="rusted.ts">
<path fill="#ddfeff" stroke="#000000" d="M48,-183.2384C48,-183.2384 6,-183.2384 6,-183.2384 3,-183.2384 0,-180.2384 0,-177.2384 0,-177.2384 0,-171.2384 0,-171.2384 0,-168.2384 3,-165.2384 6,-165.2384 6,-165.2384 48,-165.2384 48,-165.2384 51,-165.2384 54,-168.2384 54,-171.2384 54,-171.2384 54,-177.2384 54,-177.2384 54,-180.2384 51,-183.2384 48,-183.2384"/>
<text text-anchor="middle" x="27" y="-172.0384" font-family="Helvetica,sans-Serif" font-size="9.00" fill="#000000">rusted.ts</text>
</a>
</g>
</g>
<!-- rusted.ts&#45;&gt;api.ts -->
<g id="edge8" class="edge">
<title>rusted.ts&#45;&gt;api.ts</title>
<path fill="none" stroke="#000000" stroke-width="2" stroke-opacity="0.200000" d="M54.3964,-172.2353C77.2779,-170.5775 110.7608,-168.1871 140,-166.2384 189.6067,-162.9323 247.0993,-159.3943 282.5115,-157.249"/>
<polygon fill="#000000" fill-opacity="0.200000" stroke="#000000" stroke-width="2" stroke-opacity="0.200000" points="282.9977,-159.3235 288.8599,-156.8649 282.744,-155.1311 282.9977,-159.3235"/>
</g>
<!-- rusted.ts&#45;&gt;log/spinner.ts -->
<g id="edge10" class="edge">
<title>rusted.ts&#45;&gt;log/spinner.ts</title>
<path fill="none" stroke="#000000" stroke-width="2" stroke-opacity="0.200000" d="M27.733,-183.631C30.3504,-214.7126 40.2626,-313.4894 62,-335.2384 87.0818,-360.3336 104.7236,-348.4388 140,-352.2384 243.2403,-363.3585 297.2269,-377.2213 368,-301.2384 395.3454,-271.8801 407.6946,-224.5275 412.4544,-200.4098"/>
<polygon fill="#000000" fill-opacity="0.200000" stroke="#000000" stroke-width="2" stroke-opacity="0.200000" points="414.5661,-200.5412 413.6018,-194.2578 410.4373,-199.771 414.5661,-200.5412"/>
</g>
<!-- rusted.ts&#45;&gt;config/config.ts -->
<g id="edge9" class="edge">
<title>rusted.ts&#45;&gt;config/config.ts</title>
<path fill="none" stroke="#000000" stroke-width="2" stroke-opacity="0.200000" d="M32.2614,-183.4834C44.3809,-204.7792 74.3361,-257.4147 88.8533,-282.9235"/>
<polygon fill="#000000" fill-opacity="0.200000" stroke="#000000" stroke-width="2" stroke-opacity="0.200000" points="87.0749,-284.0445 91.8678,-288.2204 90.7252,-281.967 87.0749,-284.0445"/>
</g>
<!-- store/importStore.ts -->
<g id="node10" class="node">
<title>store/importStore.ts</title>
<g id="a_node10"><a xlink:href="store/importStore.ts" xlink:title="importStore.ts">
<path fill="#ddfeff" stroke="#000000" d="M232.5,-112.2384C232.5,-112.2384 171.5,-112.2384 171.5,-112.2384 168.5,-112.2384 165.5,-109.2384 165.5,-106.2384 165.5,-106.2384 165.5,-100.2384 165.5,-100.2384 165.5,-97.2384 168.5,-94.2384 171.5,-94.2384 171.5,-94.2384 232.5,-94.2384 232.5,-94.2384 235.5,-94.2384 238.5,-97.2384 238.5,-100.2384 238.5,-100.2384 238.5,-106.2384 238.5,-106.2384 238.5,-109.2384 235.5,-112.2384 232.5,-112.2384"/>
<text text-anchor="middle" x="202" y="-101.0384" font-family="Helvetica,sans-Serif" font-size="9.00" fill="#000000">importStore.ts</text>
</a>
</g>
</g>
<!-- rusted.ts&#45;&gt;store/importStore.ts -->
<g id="edge11" class="edge">
<title>rusted.ts&#45;&gt;store/importStore.ts</title>
<path fill="none" stroke="#000000" stroke-width="2" stroke-opacity="0.200000" d="M35.0773,-165.1426C41.6861,-158.2182 51.6088,-148.9366 62,-143.2384 92.5216,-126.5016 130.7161,-116.1967 159.4975,-110.2469"/>
<polygon fill="#000000" fill-opacity="0.200000" stroke="#000000" stroke-width="2" stroke-opacity="0.200000" points="160.0214,-112.2837 165.4901,-109.0426 159.1939,-108.166 160.0214,-112.2837"/>
</g>
<!-- store/store.ts -->
<g id="node11" class="node">
<title>store/store.ts</title>
<g id="a_node11"><a xlink:href="store/store.ts" xlink:title="store.ts">
<path fill="#ddfeff" stroke="#000000" d="M223,-82.2384C223,-82.2384 181,-82.2384 181,-82.2384 178,-82.2384 175,-79.2384 175,-76.2384 175,-76.2384 175,-70.2384 175,-70.2384 175,-67.2384 178,-64.2384 181,-64.2384 181,-64.2384 223,-64.2384 223,-64.2384 226,-64.2384 229,-67.2384 229,-70.2384 229,-70.2384 229,-76.2384 229,-76.2384 229,-79.2384 226,-82.2384 223,-82.2384"/>
<text text-anchor="middle" x="202" y="-71.0384" font-family="Helvetica,sans-Serif" font-size="9.00" fill="#000000">store.ts</text>
</a>
</g>
</g>
<!-- rusted.ts&#45;&gt;store/store.ts -->
<g id="edge12" class="edge">
<title>rusted.ts&#45;&gt;store/store.ts</title>
<path fill="none" stroke="#000000" stroke-width="2" stroke-opacity="0.200000" d="M29.9679,-165.1329C34.6929,-152.0281 45.1518,-127.9253 62,-114.2384 92.648,-89.341 137.8927,-79.5626 168.587,-75.7221"/>
<polygon fill="#000000" fill-opacity="0.200000" stroke="#000000" stroke-width="2" stroke-opacity="0.200000" points="169.1873,-77.7667 174.9054,-74.9894 168.7035,-73.5946 169.1873,-77.7667"/>
</g>
<!-- versions.ts -->
<g id="node12" class="node">
<title>versions.ts</title>
<g id="a_node12"><a xlink:href="versions.ts" xlink:title="versions.ts">
<path fill="#ddfeff" stroke="#000000" d="M121,-205.2384C121,-205.2384 73,-205.2384 73,-205.2384 70,-205.2384 67,-202.2384 67,-199.2384 67,-199.2384 67,-193.2384 67,-193.2384 67,-190.2384 70,-187.2384 73,-187.2384 73,-187.2384 121,-187.2384 121,-187.2384 124,-187.2384 127,-190.2384 127,-193.2384 127,-193.2384 127,-199.2384 127,-199.2384 127,-202.2384 124,-205.2384 121,-205.2384"/>
<text text-anchor="middle" x="97" y="-194.0384" font-family="Helvetica,sans-Serif" font-size="9.00" fill="#000000">versions.ts</text>
</a>
</g>
</g>
<!-- rusted.ts&#45;&gt;versions.ts -->
<g id="edge13" class="edge">
<title>rusted.ts&#45;&gt;versions.ts</title>
<path fill="none" stroke="#000000" stroke-width="2" stroke-opacity="0.200000" d="M54.2643,-182.8072C56.8555,-183.6216 59.5062,-184.4547 62.1558,-185.2874"/>
<polygon fill="#000000" fill-opacity="0.200000" stroke="#000000" stroke-width="2" stroke-opacity="0.200000" points="61.9538,-187.4251 68.3074,-187.2208 63.2131,-183.4184 61.9538,-187.4251"/>
</g>
<!-- store/importStore.ts&#45;&gt;constants.ts -->
<g id="edge17" class="edge">
<title>store/importStore.ts&#45;&gt;constants.ts</title>
<path fill="none" stroke="#000000" stroke-width="2" stroke-opacity="0.200000" d="M238.6981,-100.9847C247.9555,-98.771 257.1877,-94.8943 264,-88.2384 273.8702,-78.5949 261.0573,-66.6454 272,-58.2384 303.2847,-34.2031 350.8291,-40.3918 382.3935,-48.5437"/>
<polygon fill="#000000" fill-opacity="0.200000" stroke="#000000" stroke-width="2" stroke-opacity="0.200000" points="382.1435,-50.6515 388.4838,-50.1919 383.2407,-46.5974 382.1435,-50.6515"/>
</g>
<!-- store/downloadStore.ts -->
<g id="node14" class="node">
<title>store/downloadStore.ts</title>
<g id="a_node14"><a xlink:href="store/downloadStore.ts" xlink:title="downloadStore.ts">
<path fill="#ddfeff" stroke="#000000" d="M354,-82.2384C354,-82.2384 278,-82.2384 278,-82.2384 275,-82.2384 272,-79.2384 272,-76.2384 272,-76.2384 272,-70.2384 272,-70.2384 272,-67.2384 275,-64.2384 278,-64.2384 278,-64.2384 354,-64.2384 354,-64.2384 357,-64.2384 360,-67.2384 360,-70.2384 360,-70.2384 360,-76.2384 360,-76.2384 360,-79.2384 357,-82.2384 354,-82.2384"/>
<text text-anchor="middle" x="316" y="-71.0384" font-family="Helvetica,sans-Serif" font-size="9.00" fill="#000000">downloadStore.ts</text>
</a>
</g>
</g>
<!-- store/importStore.ts&#45;&gt;store/downloadStore.ts -->
<g id="edge18" class="edge">
<title>store/importStore.ts&#45;&gt;store/downloadStore.ts</title>
<path fill="none" stroke="#000000" stroke-width="2" stroke-opacity="0.200000" d="M238.785,-94.6179C247.0949,-92.593 255.8644,-90.3949 264,-88.2384 269.0264,-86.9061 274.3099,-85.4488 279.5043,-83.9828"/>
<polygon fill="#000000" fill-opacity="0.200000" stroke="#000000" stroke-width="2" stroke-opacity="0.200000" points="280.3445,-85.9271 285.5405,-82.2648 279.1948,-81.8876 280.3445,-85.9271"/>
</g>
<!-- store/readStore.ts -->
<g id="node15" class="node">
<title>store/readStore.ts</title>
<g id="a_node15"><a xlink:href="store/readStore.ts" xlink:title="readStore.ts">
<path fill="#ddfeff" stroke="#000000" d="M343,-112.2384C343,-112.2384 289,-112.2384 289,-112.2384 286,-112.2384 283,-109.2384 283,-106.2384 283,-106.2384 283,-100.2384 283,-100.2384 283,-97.2384 286,-94.2384 289,-94.2384 289,-94.2384 343,-94.2384 343,-94.2384 346,-94.2384 349,-97.2384 349,-100.2384 349,-100.2384 349,-106.2384 349,-106.2384 349,-109.2384 346,-112.2384 343,-112.2384"/>
<text text-anchor="middle" x="316" y="-101.0384" font-family="Helvetica,sans-Serif" font-size="9.00" fill="#000000">readStore.ts</text>
</a>
</g>
</g>
<!-- store/importStore.ts&#45;&gt;store/readStore.ts -->
<g id="edge19" class="edge">
<title>store/importStore.ts&#45;&gt;store/readStore.ts</title>
<path fill="none" stroke="#000000" stroke-width="2" stroke-opacity="0.200000" d="M238.6978,-103.2384C250.7811,-103.2384 264.2645,-103.2384 276.5442,-103.2384"/>
<polygon fill="#000000" fill-opacity="0.200000" stroke="#000000" stroke-width="2" stroke-opacity="0.200000" points="276.8422,-105.3385 282.8422,-103.2384 276.8422,-101.1385 276.8422,-105.3385"/>
</g>
<!-- store/store.ts&#45;&gt;constants.ts -->
<g id="edge22" class="edge">
<title>store/store.ts&#45;&gt;constants.ts</title>
<path fill="none" stroke="#000000" stroke-width="2" stroke-opacity="0.200000" d="M214.1074,-64.2052C227.4736,-54.8453 250.0197,-40.8198 272,-35.2384 313.3543,-24.7375 326.5166,-25.2598 368,-35.2384 377.6985,-37.5714 387.6487,-42.2609 395.8822,-46.8806"/>
<polygon fill="#000000" fill-opacity="0.200000" stroke="#000000" stroke-width="2" stroke-opacity="0.200000" points="395.0442,-48.8232 401.284,-50.0379 397.1636,-45.1971 395.0442,-48.8232"/>
</g>
<!-- versions.ts&#45;&gt;api.ts -->
<g id="edge23" class="edge">
<title>versions.ts&#45;&gt;api.ts</title>
<path fill="none" stroke="#000000" stroke-width="2" stroke-opacity="0.200000" d="M106.3121,-205.3032C114.4504,-212.5478 126.9746,-222.1437 140,-226.2384 192.5745,-242.7659 214.8479,-251.1645 264,-226.2384 287.0589,-214.5447 302.3541,-187.288 310.0741,-170.1522"/>
<polygon fill="#000000" fill-opacity="0.200000" stroke="#000000" stroke-width="2" stroke-opacity="0.200000" points="312.1307,-170.6859 312.5759,-164.3445 308.2734,-169.0242 312.1307,-170.6859"/>
</g>
<!-- versions.ts&#45;&gt;constants.ts -->
<g id="edge25" class="edge">
<title>versions.ts&#45;&gt;constants.ts</title>
<path fill="none" stroke="#000000" stroke-width="2" stroke-opacity="0.200000" d="M98.5181,-187.0788C103.4297,-158.539 119.751,-72.0072 140,-53.2384 214.9171,16.2022 271.0373,7.8987 368,-24.2384 380.8741,-28.5054 393.0853,-37.8197 401.8329,-45.7674"/>
<polygon fill="#000000" fill-opacity="0.200000" stroke="#000000" stroke-width="2" stroke-opacity="0.200000" points="400.5137,-47.41 406.3185,-50.0014 403.3967,-44.3557 400.5137,-47.41"/>
</g>
<!-- versions.ts&#45;&gt;log/spinner.ts -->
<g id="edge27" class="edge">
<title>versions.ts&#45;&gt;log/spinner.ts</title>
<path fill="none" stroke="#000000" stroke-width="2" stroke-opacity="0.200000" d="M102.2279,-205.6218C109.1649,-216.9898 122.5917,-235.5705 140,-243.2384 190.4352,-265.454 209.8128,-253.2874 264,-243.2384 311.3716,-234.4535 363.067,-211.3942 392.0153,-197.1384"/>
<polygon fill="#000000" fill-opacity="0.200000" stroke="#000000" stroke-width="2" stroke-opacity="0.200000" points="393.058,-198.9652 397.4936,-194.4115 391.1864,-195.2052 393.058,-198.9652"/>
</g>
<!-- versions.ts&#45;&gt;commons/ComparableVersion.ts -->
<g id="edge24" class="edge">
<title>versions.ts&#45;&gt;commons/ComparableVersion.ts</title>
<path fill="none" stroke="#000000" stroke-width="2" stroke-opacity="0.200000" d="M99.6012,-205.4424C104.679,-221.7889 117.4355,-255.9744 140,-275.2384 144.9879,-279.4968 150.8576,-282.9517 156.9625,-285.7493"/>
<polygon fill="#000000" fill-opacity="0.200000" stroke="#000000" stroke-width="2" stroke-opacity="0.200000" points="156.2723,-287.7374 162.6166,-288.138 157.9068,-283.8685 156.2723,-287.7374"/>
</g>
<!-- versions.ts&#45;&gt;interfaces.ts -->
<g id="edge26" class="edge">
<title>versions.ts&#45;&gt;interfaces.ts</title>
<path fill="none" stroke="#000000" stroke-width="2" stroke-opacity="0.200000" d="M127.0888,-200.5368C138.3386,-202.144 151.2787,-203.9925 163.2043,-205.6962"/>
<polygon fill="#000000" fill-opacity="0.200000" stroke="#000000" stroke-width="2" stroke-opacity="0.200000" points="163.0971,-207.8021 169.3338,-206.5718 163.6912,-203.6443 163.0971,-207.8021"/>
</g>
<!-- versions.ts&#45;&gt;store/store.ts -->
<g id="edge29" class="edge">
<title>versions.ts&#45;&gt;store/store.ts</title>
<path fill="none" stroke="#000000" stroke-width="2" stroke-opacity="0.200000" d="M97.8587,-187.1064C100.3261,-166.2399 109.36,-114.8221 140,-88.2384 147.9715,-81.3223 158.5997,-77.4766 168.802,-75.3739"/>
<polygon fill="#000000" fill-opacity="0.200000" stroke="#000000" stroke-width="2" stroke-opacity="0.200000" points="169.1924,-77.4376 174.7364,-74.3272 168.4628,-73.3014 169.1924,-77.4376"/>
</g>
<!-- select.ts -->
<g id="node13" class="node">
<title>select.ts</title>
<g id="a_node13"><a xlink:href="select.ts" xlink:title="select.ts">
<path fill="#ddfeff" stroke="#000000" d="M223,-190.2384C223,-190.2384 181,-190.2384 181,-190.2384 178,-190.2384 175,-187.2384 175,-184.2384 175,-184.2384 175,-178.2384 175,-178.2384 175,-175.2384 178,-172.2384 181,-172.2384 181,-172.2384 223,-172.2384 223,-172.2384 226,-172.2384 229,-175.2384 229,-178.2384 229,-178.2384 229,-184.2384 229,-184.2384 229,-187.2384 226,-190.2384 223,-190.2384"/>
<text text-anchor="middle" x="202" y="-179.0384" font-family="Helvetica,sans-Serif" font-size="9.00" fill="#000000">select.ts</text>
</a>
</g>
</g>
<!-- versions.ts&#45;&gt;select.ts -->
<g id="edge28" class="edge">
<title>versions.ts&#45;&gt;select.ts</title>
<path fill="none" stroke="#000000" stroke-width="2" stroke-opacity="0.200000" d="M127.0888,-191.94C140.1216,-190.0782 155.4228,-187.8923 168.7873,-185.9831"/>
<polygon fill="#000000" fill-opacity="0.200000" stroke="#000000" stroke-width="2" stroke-opacity="0.200000" points="169.1337,-188.055 174.7764,-185.1275 168.5396,-183.8972 169.1337,-188.055"/>
</g>
<!-- store/downloadStore.ts&#45;&gt;api.ts -->
<g id="edge14" class="edge">
<title>store/downloadStore.ts&#45;&gt;api.ts</title>
<path fill="none" stroke="#000000" stroke-width="2" stroke-opacity="0.200000" d="M281.6918,-82.3902C278.2484,-84.0406 274.9426,-85.975 272,-88.2384 269.4596,-90.1925 268.9287,-91.171 268,-94.2384 262.7195,-111.6788 262.7195,-117.7981 268,-135.2384 270.1869,-142.4613 276.0637,-147.0996 282.9874,-150.0711"/>
<polygon fill="#000000" fill-opacity="0.200000" stroke="#000000" stroke-width="2" stroke-opacity="0.200000" points="282.6347,-152.1738 288.9916,-152.1953 284.0356,-148.2143 282.6347,-152.1738"/>
</g>
<!-- store/downloadStore.ts&#45;&gt;constants.ts -->
<g id="edge15" class="edge">
<title>store/downloadStore.ts&#45;&gt;constants.ts</title>
<path fill="none" stroke="#000000" stroke-width="2" stroke-opacity="0.200000" d="M360.2879,-66.9755C365.6164,-66.222 371.0263,-65.4569 376.2671,-64.7158"/>
<polygon fill="#000000" fill-opacity="0.200000" stroke="#000000" stroke-width="2" stroke-opacity="0.200000" points="376.6797,-66.7785 382.3265,-63.8589 376.0915,-62.6198 376.6797,-66.7785"/>
</g>
<!-- store/downloadStore.ts&#45;&gt;log/spinner.ts -->
<g id="edge16" class="edge">
<title>store/downloadStore.ts&#45;&gt;log/spinner.ts</title>
<path fill="none" stroke="#000000" stroke-width="2" stroke-opacity="0.200000" d="M360.4131,-81.6693C363.2549,-83.4714 365.8375,-85.6375 368,-88.2384 379.705,-102.3169 364.9134,-155.668 376,-170.2384 377.5814,-172.3168 379.4893,-174.1072 381.6005,-175.6496"/>
<polygon fill="#000000" fill-opacity="0.200000" stroke="#000000" stroke-width="2" stroke-opacity="0.200000" points="380.6171,-177.509 386.8379,-178.8172 382.7907,-173.9152 380.6171,-177.509"/>
</g>
<!-- store/readStore.ts&#45;&gt;constants.ts -->
<g id="edge20" class="edge">
<title>store/readStore.ts&#45;&gt;constants.ts</title>
<path fill="none" stroke="#000000" stroke-width="2" stroke-opacity="0.200000" d="M349.2141,-95.1219C355.5619,-93.1629 362.072,-90.8633 368,-88.2384 378.1642,-83.7378 388.7618,-77.3658 397.3156,-71.7404"/>
<polygon fill="#000000" fill-opacity="0.200000" stroke="#000000" stroke-width="2" stroke-opacity="0.200000" points="398.5438,-73.4453 402.3553,-68.3578 396.203,-69.958 398.5438,-73.4453"/>
</g>
<!-- store/readStore.ts&#45;&gt;log/spinner.ts -->
<g id="edge21" class="edge">
<title>store/readStore.ts&#45;&gt;log/spinner.ts</title>
<path fill="none" stroke="#000000" stroke-width="2" stroke-opacity="0.200000" d="M334.6603,-112.2695C345.8932,-118.6165 359.6006,-128.1303 368,-140.2384 375.8653,-151.5767 366.776,-159.975 376,-170.2384 377.5972,-172.0156 379.429,-173.5838 381.4086,-174.9673"/>
<polygon fill="#000000" fill-opacity="0.200000" stroke="#000000" stroke-width="2" stroke-opacity="0.200000" points="380.6974,-176.9851 386.9342,-178.215 382.8257,-173.3643 380.6974,-176.9851"/>
</g>
</g>
</svg>
