<?xml version="1.0" encoding="UTF-8" standalone="no"?>
<!DOCTYPE svg PUBLIC "-//W3C//DTD SVG 1.1//EN"
 "http://www.w3.org/Graphics/SVG/1.1/DTD/svg11.dtd">
<!-- Generated by graphviz version 2.40.1 (20161225.0304)
 -->
<!-- Title: dependency&#45;cruiser output Pages: 1 -->
<svg width="400pt" height="189pt"
 viewBox="0.00 0.00 400.00 189.33" xmlns="http://www.w3.org/2000/svg" xmlns:xlink="http://www.w3.org/1999/xlink">
<g id="graph0" class="graph" transform="scale(1 1) rotate(0) translate(4 185.3294)">
<title>dependency&#45;cruiser output</title>
<polygon fill="#ffffff" stroke="transparent" points="-4,4 -4,-185.3294 396,-185.3294 396,4 -4,4"/>
<g id="clust1" class="cluster">
<title>cluster_config</title>
<path fill="#ffffff" stroke="#000000" stroke-width="2" d="M74,-66C74,-66 120,-66 120,-66 126,-66 132,-72 132,-78 132,-78 132,-106 132,-106 132,-112 126,-118 120,-118 120,-118 74,-118 74,-118 68,-118 62,-112 62,-106 62,-106 62,-78 62,-78 62,-72 68,-66 74,-66"/>
<text text-anchor="middle" x="97" y="-106.8" font-family="Helvetica,sans-Serif" font-weight="bold" font-size="9.00" fill="#000000">config</text>
</g>
<g id="clust2" class="cluster">
<title>cluster_store</title>
<path fill="#ffffff" stroke="#000000" stroke-width="2" d="M152,-8C152,-8 318,-8 318,-8 324,-8 330,-14 330,-20 330,-20 330,-78 330,-78 330,-84 324,-90 318,-90 318,-90 152,-90 152,-90 146,-90 140,-84 140,-78 140,-78 140,-20 140,-20 140,-14 146,-8 152,-8"/>
<text text-anchor="middle" x="235" y="-78.8" font-family="Helvetica,sans-Serif" font-weight="bold" font-size="9.00" fill="#000000">store</text>
</g>
<!-- api.ts -->
<g id="node1" class="node">
<title>api.ts</title>
<g id="a_node1"><a xlink:href="api.ts" xlink:title="api.ts">
<path fill="#ddfeff" stroke="#000000" d="M386,-144C386,-144 344,-144 344,-144 341,-144 338,-141 338,-138 338,-138 338,-132 338,-132 338,-129 341,-126 344,-126 344,-126 386,-126 386,-126 389,-126 392,-129 392,-132 392,-132 392,-138 392,-138 392,-141 389,-144 386,-144"/>
<text text-anchor="middle" x="365" y="-132.8" font-family="Helvetica,sans-Serif" font-size="9.00" fill="#000000">api.ts</text>
</a>
</g>
</g>
<!-- config/config.ts -->
<g id="node2" class="node">
<title>config/config.ts</title>
<g id="a_node2"><a xlink:href="config/config.ts" xlink:title="config.ts">
<path fill="#ddfeff" stroke="#000000" d="M118,-92C118,-92 76,-92 76,-92 73,-92 70,-89 70,-86 70,-86 70,-80 70,-80 70,-77 73,-74 76,-74 76,-74 118,-74 118,-74 121,-74 124,-77 124,-80 124,-80 124,-86 124,-86 124,-89 121,-92 118,-92"/>
<text text-anchor="middle" x="97" y="-80.8" font-family="Helvetica,sans-Serif" font-size="9.00" fill="#000000">config.ts</text>
</a>
</g>
</g>
<!-- interfaces.ts -->
<g id="node3" class="node">
<title>interfaces.ts</title>
<g id="a_node3"><a xlink:href="interfaces.ts" xlink:title="interfaces.ts">
<path fill="#ddfeff" stroke="#000000" d="M211,-172C211,-172 158,-172 158,-172 155,-172 152,-169 152,-166 152,-166 152,-160 152,-160 152,-157 155,-154 158,-154 158,-154 211,-154 211,-154 214,-154 217,-157 217,-160 217,-160 217,-166 217,-166 217,-169 214,-172 211,-172"/>
<text text-anchor="middle" x="184.5" y="-160.8" font-family="Helvetica,sans-Serif" font-size="9.00" fill="#000000">interfaces.ts</text>
</a>
</g>
</g>
<!-- rusted.ts -->
<g id="node4" class="node">
<title>rusted.ts</title>
<g id="a_node4"><a xlink:href="rusted.ts" xlink:title="rusted.ts">
<path fill="#ddfeff" stroke="#000000" d="M48,-92C48,-92 6,-92 6,-92 3,-92 0,-89 0,-86 0,-86 0,-80 0,-80 0,-77 3,-74 6,-74 6,-74 48,-74 48,-74 51,-74 54,-77 54,-80 54,-80 54,-86 54,-86 54,-89 51,-92 48,-92"/>
<text text-anchor="middle" x="27" y="-80.8" font-family="Helvetica,sans-Serif" font-size="9.00" fill="#000000">rusted.ts</text>
</a>
</g>
</g>
<!-- rusted.ts&#45;&gt;api.ts -->
<g id="edge1" class="edge">
<title>rusted.ts&#45;&gt;api.ts</title>
<path fill="none" stroke="#000000" stroke-width="2" stroke-opacity="0.200000" d="M29.4291,-92.1527C33.6807,-106.4619 43.7987,-134.1319 62,-150 89.7631,-174.2043 103.7129,-171.6842 140,-178 212.0342,-190.5375 296.6513,-162.8885 338.6246,-146.3083"/>
<polygon fill="#000000" fill-opacity="0.200000" stroke="#000000" stroke-width="2" stroke-opacity="0.200000" points="339.4721,-148.2311 344.2584,-144.0476 337.9079,-144.3332 339.4721,-148.2311"/>
</g>
<!-- rusted.ts&#45;&gt;config/config.ts -->
<g id="edge2" class="edge">
<title>rusted.ts&#45;&gt;config/config.ts</title>
<path fill="none" stroke="#000000" stroke-width="2" stroke-opacity="0.200000" d="M54.2643,-83C57.273,-83 60.3619,-83 63.4361,-83"/>
<polygon fill="#000000" fill-opacity="0.200000" stroke="#000000" stroke-width="2" stroke-opacity="0.200000" points="63.695,-85.1001 69.695,-83 63.695,-80.9001 63.695,-85.1001"/>
</g>
<!-- store/importStore.ts -->
<g id="node5" class="node">
<title>store/importStore.ts</title>
<g id="a_node5"><a xlink:href="store/importStore.ts" xlink:title="importStore.ts">
<path fill="#ddfeff" stroke="#000000" d="M215,-34C215,-34 154,-34 154,-34 151,-34 148,-31 148,-28 148,-28 148,-22 148,-22 148,-19 151,-16 154,-16 154,-16 215,-16 215,-16 218,-16 221,-19 221,-22 221,-22 221,-28 221,-28 221,-31 218,-34 215,-34"/>
<text text-anchor="middle" x="184.5" y="-22.8" font-family="Helvetica,sans-Serif" font-size="9.00" fill="#000000">importStore.ts</text>
</a>
</g>
</g>
<!-- rusted.ts&#45;&gt;store/importStore.ts -->
<g id="edge3" class="edge">
<title>rusted.ts&#45;&gt;store/importStore.ts</title>
<path fill="none" stroke="#000000" stroke-width="2" stroke-opacity="0.200000" d="M34.0571,-73.9811C40.5063,-66.3843 50.7325,-55.8467 62,-50 86.688,-37.1893 117.3532,-30.9396 141.8263,-27.8925"/>
<polygon fill="#000000" fill-opacity="0.200000" stroke="#000000" stroke-width="2" stroke-opacity="0.200000" points="142.1904,-29.9644 147.9074,-27.1847 141.7048,-25.7925 142.1904,-29.9644"/>
</g>
<!-- store/store.ts -->
<g id="node6" class="node">
<title>store/store.ts</title>
<g id="a_node6"><a xlink:href="store/store.ts" xlink:title="store.ts">
<path fill="#ddfeff" stroke="#000000" d="M205.5,-64C205.5,-64 163.5,-64 163.5,-64 160.5,-64 157.5,-61 157.5,-58 157.5,-58 157.5,-52 157.5,-52 157.5,-49 160.5,-46 163.5,-46 163.5,-46 205.5,-46 205.5,-46 208.5,-46 211.5,-49 211.5,-52 211.5,-52 211.5,-58 211.5,-58 211.5,-61 208.5,-64 205.5,-64"/>
<text text-anchor="middle" x="184.5" y="-52.8" font-family="Helvetica,sans-Serif" font-size="9.00" fill="#000000">store.ts</text>
</a>
</g>
</g>
<!-- rusted.ts&#45;&gt;store/store.ts -->
<g id="edge4" class="edge">
<title>rusted.ts&#45;&gt;store/store.ts</title>
<path fill="none" stroke="#000000" stroke-width="2" stroke-opacity="0.200000" d="M39.6525,-73.9042C46.0377,-69.8138 54.0918,-65.3787 62,-63 91.1631,-54.2281 125.9353,-52.7561 150.9693,-53.1679"/>
<polygon fill="#000000" fill-opacity="0.200000" stroke="#000000" stroke-width="2" stroke-opacity="0.200000" points="151.0677,-55.2706 157.1147,-53.3098 151.1648,-51.0717 151.0677,-55.2706"/>
</g>
<!-- versions.ts -->
<g id="node7" class="node">
<title>versions.ts</title>
<g id="a_node7"><a xlink:href="versions.ts" xlink:title="versions.ts">
<path fill="#ddfeff" stroke="#000000" d="M121,-144C121,-144 73,-144 73,-144 70,-144 67,-141 67,-138 67,-138 67,-132 67,-132 67,-129 70,-126 73,-126 73,-126 121,-126 121,-126 124,-126 127,-129 127,-132 127,-132 127,-138 127,-138 127,-141 124,-144 121,-144"/>
<text text-anchor="middle" x="97" y="-132.8" font-family="Helvetica,sans-Serif" font-size="9.00" fill="#000000">versions.ts</text>
</a>
</g>
</g>
<!-- rusted.ts&#45;&gt;versions.ts -->
<g id="edge5" class="edge">
<title>rusted.ts&#45;&gt;versions.ts</title>
<path fill="none" stroke="#000000" stroke-width="2" stroke-opacity="0.200000" d="M33.5758,-92.2301C40.0029,-100.6855 50.4796,-113.0593 62,-121 62.9699,-121.6685 63.9765,-122.3123 65.0097,-122.9314"/>
<polygon fill="#000000" fill-opacity="0.200000" stroke="#000000" stroke-width="2" stroke-opacity="0.200000" points="64.076,-124.8139 70.3524,-125.8227 66.0751,-121.1201 64.076,-124.8139"/>
</g>
<!-- store/downloadStore.ts -->
<g id="node9" class="node">
<title>store/downloadStore.ts</title>
<g id="a_node9"><a xlink:href="store/downloadStore.ts" xlink:title="downloadStore.ts">
<path fill="#ddfeff" stroke="#000000" d="M316,-34C316,-34 240,-34 240,-34 237,-34 234,-31 234,-28 234,-28 234,-22 234,-22 234,-19 237,-16 240,-16 240,-16 316,-16 316,-16 319,-16 322,-19 322,-22 322,-22 322,-28 322,-28 322,-31 319,-34 316,-34"/>
<text text-anchor="middle" x="278" y="-22.8" font-family="Helvetica,sans-Serif" font-size="9.00" fill="#000000">downloadStore.ts</text>
</a>
</g>
</g>
<!-- store/importStore.ts&#45;&gt;store/downloadStore.ts -->
<g id="edge7" class="edge">
<title>store/importStore.ts&#45;&gt;store/downloadStore.ts</title>
<path fill="none" stroke="#000000" stroke-width="2" stroke-opacity="0.200000" d="M221.1853,-25C223.414,-25 225.6748,-25 227.946,-25"/>
<polygon fill="#000000" fill-opacity="0.200000" stroke="#000000" stroke-width="2" stroke-opacity="0.200000" points="227.9676,-27.1001 233.9676,-25 227.9675,-22.9001 227.9676,-27.1001"/>
</g>
<!-- store/readStore.ts -->
<g id="node10" class="node">
<title>store/readStore.ts</title>
<g id="a_node10"><a xlink:href="store/readStore.ts" xlink:title="readStore.ts">
<path fill="#ddfeff" stroke="#000000" d="M305,-64C305,-64 251,-64 251,-64 248,-64 245,-61 245,-58 245,-58 245,-52 245,-52 245,-49 248,-46 251,-46 251,-46 305,-46 305,-46 308,-46 311,-49 311,-52 311,-52 311,-58 311,-58 311,-61 308,-64 305,-64"/>
<text text-anchor="middle" x="278" y="-52.8" font-family="Helvetica,sans-Serif" font-size="9.00" fill="#000000">readStore.ts</text>
</a>
</g>
</g>
<!-- store/importStore.ts&#45;&gt;store/readStore.ts -->
<g id="edge8" class="edge">
<title>store/importStore.ts&#45;&gt;store/readStore.ts</title>
<path fill="none" stroke="#000000" stroke-width="2" stroke-opacity="0.200000" d="M212.5531,-34.001C222.3557,-37.1462 233.4713,-40.7127 243.7235,-44.0022"/>
<polygon fill="#000000" fill-opacity="0.200000" stroke="#000000" stroke-width="2" stroke-opacity="0.200000" points="243.2888,-46.0681 249.6436,-45.9017 244.572,-42.0689 243.2888,-46.0681"/>
</g>
<!-- versions.ts&#45;&gt;api.ts -->
<g id="edge9" class="edge">
<title>versions.ts&#45;&gt;api.ts</title>
<path fill="none" stroke="#000000" stroke-width="2" stroke-opacity="0.200000" d="M127.2221,-135C177.7353,-135 278.9434,-135 331.5372,-135"/>
<polygon fill="#000000" fill-opacity="0.200000" stroke="#000000" stroke-width="2" stroke-opacity="0.200000" points="331.7035,-137.1001 337.7034,-135 331.7034,-132.9001 331.7035,-137.1001"/>
</g>
<!-- versions.ts&#45;&gt;interfaces.ts -->
<g id="edge10" class="edge">
<title>versions.ts&#45;&gt;interfaces.ts</title>
<path fill="none" stroke="#000000" stroke-width="2" stroke-opacity="0.200000" d="M125.1672,-144.0135C133.0498,-146.5359 141.7087,-149.3068 149.9169,-151.9334"/>
<polygon fill="#000000" fill-opacity="0.200000" stroke="#000000" stroke-width="2" stroke-opacity="0.200000" points="149.731,-154.0788 156.0856,-153.9074 151.0111,-150.0786 149.731,-154.0788"/>
</g>
<!-- versions.ts&#45;&gt;store/store.ts -->
<g id="edge12" class="edge">
<title>versions.ts&#45;&gt;store/store.ts</title>
<path fill="none" stroke="#000000" stroke-width="2" stroke-opacity="0.200000" d="M126.3086,-125.8664C128.4052,-124.4654 130.3421,-122.8536 132,-121 140.9136,-111.0344 132.7493,-103.2336 140,-92 146.1365,-82.4926 155.4865,-74.1893 164.0348,-67.8708"/>
<polygon fill="#000000" fill-opacity="0.200000" stroke="#000000" stroke-width="2" stroke-opacity="0.200000" points="165.5351,-69.3816 169.2178,-64.2001 163.1077,-65.9541 165.5351,-69.3816"/>
</g>
<!-- select.ts -->
<g id="node8" class="node">
<title>select.ts</title>
<g id="a_node8"><a xlink:href="select.ts" xlink:title="select.ts">
<path fill="#ddfeff" stroke="#000000" d="M205.5,-116C205.5,-116 163.5,-116 163.5,-116 160.5,-116 157.5,-113 157.5,-110 157.5,-110 157.5,-104 157.5,-104 157.5,-101 160.5,-98 163.5,-98 163.5,-98 205.5,-98 205.5,-98 208.5,-98 211.5,-101 211.5,-104 211.5,-104 211.5,-110 211.5,-110 211.5,-113 208.5,-116 205.5,-116"/>
<text text-anchor="middle" x="184.5" y="-104.8" font-family="Helvetica,sans-Serif" font-size="9.00" fill="#000000">select.ts</text>
</a>
</g>
</g>
<!-- versions.ts&#45;&gt;select.ts -->
<g id="edge11" class="edge">
<title>versions.ts&#45;&gt;select.ts</title>
<path fill="none" stroke="#000000" stroke-width="2" stroke-opacity="0.200000" d="M125.1672,-125.9865C133.5291,-123.3107 142.7646,-120.3553 151.4089,-117.5891"/>
<polygon fill="#000000" fill-opacity="0.200000" stroke="#000000" stroke-width="2" stroke-opacity="0.200000" points="152.2065,-119.5389 157.281,-115.7101 150.9264,-115.5387 152.2065,-119.5389"/>
</g>
<!-- store/downloadStore.ts&#45;&gt;api.ts -->
<g id="edge6" class="edge">
<title>store/downloadStore.ts&#45;&gt;api.ts</title>
<path fill="none" stroke="#000000" stroke-width="2" stroke-opacity="0.200000" d="M321.7174,-34.0889C324.7152,-35.7434 327.5235,-37.696 330,-40 352.8759,-61.2822 360.8584,-98.8142 363.6009,-119.7673"/>
<polygon fill="#000000" fill-opacity="0.200000" stroke="#000000" stroke-width="2" stroke-opacity="0.200000" points="361.5404,-120.2289 364.3195,-125.9462 365.7122,-119.7437 361.5404,-120.2289"/>
</g>
</g>
</svg>
