<?xml version="1.0" encoding="UTF-8" standalone="no"?>
<!DOCTYPE svg PUBLIC "-//W3C//DTD SVG 1.1//EN"
 "http://www.w3.org/Graphics/SVG/1.1/DTD/svg11.dtd">
<!-- Generated by graphviz version 2.40.1 (20161225.0304)
 -->
<!-- Title: dependency&#45;cruiser output Pages: 1 -->
<svg width="470pt" height="564pt"
 viewBox="0.00 0.00 470.00 564.11" xmlns="http://www.w3.org/2000/svg" xmlns:xlink="http://www.w3.org/1999/xlink">
<g id="graph0" class="graph" transform="scale(1 1) rotate(0) translate(4 560.1062)">
<title>dependency&#45;cruiser output</title>
<polygon fill="#ffffff" stroke="transparent" points="-4,4 -4,-560.1062 466,-560.1062 466,4 -4,4"/>
<g id="clust1" class="cluster">
<title>cluster_commons</title>
<path fill="#ffffff" stroke="#000000" stroke-width="2" d="M272,-229.5874C272,-229.5874 372,-229.5874 372,-229.5874 378,-229.5874 384,-235.5874 384,-241.5874 384,-241.5874 384,-299.5874 384,-299.5874 384,-305.5874 378,-311.5874 372,-311.5874 372,-311.5874 272,-311.5874 272,-311.5874 266,-311.5874 260,-305.5874 260,-299.5874 260,-299.5874 260,-241.5874 260,-241.5874 260,-235.5874 266,-229.5874 272,-229.5874"/>
<text text-anchor="middle" x="322" y="-300.3874" font-family="Helvetica,sans-Serif" font-weight="bold" font-size="9.00" fill="#000000">commons</text>
</g>
<g id="clust2" class="cluster">
<title>cluster_config</title>
<path fill="#ffffff" stroke="#000000" stroke-width="2" d="M83.5,-287.5874C83.5,-287.5874 129.5,-287.5874 129.5,-287.5874 135.5,-287.5874 141.5,-293.5874 141.5,-299.5874 141.5,-299.5874 141.5,-327.5874 141.5,-327.5874 141.5,-333.5874 135.5,-339.5874 129.5,-339.5874 129.5,-339.5874 83.5,-339.5874 83.5,-339.5874 77.5,-339.5874 71.5,-333.5874 71.5,-327.5874 71.5,-327.5874 71.5,-299.5874 71.5,-299.5874 71.5,-293.5874 77.5,-287.5874 83.5,-287.5874"/>
<text text-anchor="middle" x="106.5" y="-328.3874" font-family="Helvetica,sans-Serif" font-weight="bold" font-size="9.00" fill="#000000">config</text>
</g>
<g id="clust3" class="cluster">
<title>cluster_log</title>
<path fill="#ffffff" stroke="#000000" stroke-width="2" d="M295,-411.5874C295,-411.5874 442,-411.5874 442,-411.5874 448,-411.5874 454,-417.5874 454,-423.5874 454,-423.5874 454,-481.5874 454,-481.5874 454,-487.5874 448,-493.5874 442,-493.5874 442,-493.5874 295,-493.5874 295,-493.5874 289,-493.5874 283,-487.5874 283,-481.5874 283,-481.5874 283,-423.5874 283,-423.5874 283,-417.5874 289,-411.5874 295,-411.5874"/>
<text text-anchor="middle" x="368.5" y="-482.3874" font-family="Helvetica,sans-Serif" font-weight="bold" font-size="9.00" fill="#000000">log</text>
</g>
<g id="clust4" class="cluster">
<title>cluster_store</title>
<path fill="#ffffff" stroke="#000000" stroke-width="2" d="M74,-149.5874C74,-149.5874 240,-149.5874 240,-149.5874 246,-149.5874 252,-155.5874 252,-161.5874 252,-161.5874 252,-219.5874 252,-219.5874 252,-225.5874 246,-231.5874 240,-231.5874 240,-231.5874 74,-231.5874 74,-231.5874 68,-231.5874 62,-225.5874 62,-219.5874 62,-219.5874 62,-161.5874 62,-161.5874 62,-155.5874 68,-149.5874 74,-149.5874"/>
<text text-anchor="middle" x="157" y="-220.3874" font-family="Helvetica,sans-Serif" font-weight="bold" font-size="9.00" fill="#000000">store</text>
</g>
<!-- api.ts -->
<g id="node1" class="node">
<title>api.ts</title>
<g id="a_node1"><a xlink:href="api.ts" xlink:title="api.ts">
<path fill="#ddfeff" stroke="#000000" d="M221,-533.5874C221,-533.5874 179,-533.5874 179,-533.5874 176,-533.5874 173,-530.5874 173,-527.5874 173,-527.5874 173,-521.5874 173,-521.5874 173,-518.5874 176,-515.5874 179,-515.5874 179,-515.5874 221,-515.5874 221,-515.5874 224,-515.5874 227,-518.5874 227,-521.5874 227,-521.5874 227,-527.5874 227,-527.5874 227,-530.5874 224,-533.5874 221,-533.5874"/>
<text text-anchor="middle" x="200" y="-522.3874" font-family="Helvetica,sans-Serif" font-size="9.00" fill="#000000">api.ts</text>
</a>
</g>
</g>
<!-- commons/constants.ts -->
<g id="node2" class="node">
<title>commons/constants.ts</title>
<g id="a_node2"><a xlink:href="commons/constants.ts" xlink:title="constants.ts">
<path fill="#ddfeff" stroke="#000000" d="M348.5,-255.5874C348.5,-255.5874 295.5,-255.5874 295.5,-255.5874 292.5,-255.5874 289.5,-252.5874 289.5,-249.5874 289.5,-249.5874 289.5,-243.5874 289.5,-243.5874 289.5,-240.5874 292.5,-237.5874 295.5,-237.5874 295.5,-237.5874 348.5,-237.5874 348.5,-237.5874 351.5,-237.5874 354.5,-240.5874 354.5,-243.5874 354.5,-243.5874 354.5,-249.5874 354.5,-249.5874 354.5,-252.5874 351.5,-255.5874 348.5,-255.5874"/>
<text text-anchor="middle" x="322" y="-244.3874" font-family="Helvetica,sans-Serif" font-size="9.00" fill="#000000">constants.ts</text>
</a>
</g>
</g>
<!-- api.ts&#45;&gt;commons/constants.ts -->
<g id="edge1" class="edge">
<title>api.ts&#45;&gt;commons/constants.ts</title>
<path fill="none" stroke="#000000" stroke-width="2" stroke-opacity="0.200000" d="M206.8423,-515.393C218.6165,-498.9748 242.3705,-463.0933 252,-428.5874 256.9934,-410.6943 248.1659,-275.9071 260,-261.5874 265.9029,-254.4447 274.5704,-250.3687 283.5647,-248.1178"/>
<polygon fill="#000000" fill-opacity="0.200000" stroke="#000000" stroke-width="2" stroke-opacity="0.200000" points="284.0478,-250.1624 289.4967,-246.8882 283.1953,-246.0498 284.0478,-250.1624"/>
</g>
<!-- log/progress.ts -->
<g id="node3" class="node">
<title>log/progress.ts</title>
<g id="a_node3"><a xlink:href="log/progress.ts" xlink:title="progress.ts">
<path fill="#ddfeff" stroke="#000000" d="M347,-467.5874C347,-467.5874 297,-467.5874 297,-467.5874 294,-467.5874 291,-464.5874 291,-461.5874 291,-461.5874 291,-455.5874 291,-455.5874 291,-452.5874 294,-449.5874 297,-449.5874 297,-449.5874 347,-449.5874 347,-449.5874 350,-449.5874 353,-452.5874 353,-455.5874 353,-455.5874 353,-461.5874 353,-461.5874 353,-464.5874 350,-467.5874 347,-467.5874"/>
<text text-anchor="middle" x="322" y="-456.3874" font-family="Helvetica,sans-Serif" font-size="9.00" fill="#000000">progress.ts</text>
</a>
</g>
</g>
<!-- api.ts&#45;&gt;log/progress.ts -->
<g id="edge2" class="edge">
<title>api.ts&#45;&gt;log/progress.ts</title>
<path fill="none" stroke="#000000" stroke-width="2" stroke-opacity="0.200000" d="M227.0179,-516.764C235.2298,-513.9836 244.1527,-510.5456 252,-506.5874 271.5129,-496.7452 291.9113,-482.1963 305.6198,-471.6978"/>
<polygon fill="#000000" fill-opacity="0.200000" stroke="#000000" stroke-width="2" stroke-opacity="0.200000" points="307.2536,-473.0882 310.7076,-467.7515 304.6794,-469.7695 307.2536,-473.0882"/>
</g>
<!-- log/spinner.ts -->
<g id="node4" class="node">
<title>log/spinner.ts</title>
<g id="a_node4"><a xlink:href="log/spinner.ts" xlink:title="spinner.ts">
<path fill="#ddfeff" stroke="#000000" d="M344,-437.5874C344,-437.5874 300,-437.5874 300,-437.5874 297,-437.5874 294,-434.5874 294,-431.5874 294,-431.5874 294,-425.5874 294,-425.5874 294,-422.5874 297,-419.5874 300,-419.5874 300,-419.5874 344,-419.5874 344,-419.5874 347,-419.5874 350,-422.5874 350,-425.5874 350,-425.5874 350,-431.5874 350,-431.5874 350,-434.5874 347,-437.5874 344,-437.5874"/>
<text text-anchor="middle" x="322" y="-426.3874" font-family="Helvetica,sans-Serif" font-size="9.00" fill="#000000">spinner.ts</text>
</a>
</g>
</g>
<!-- api.ts&#45;&gt;log/spinner.ts -->
<g id="edge3" class="edge">
<title>api.ts&#45;&gt;log/spinner.ts</title>
<path fill="none" stroke="#000000" stroke-width="2" stroke-opacity="0.200000" d="M227.1452,-521.0959C236.3555,-518.5468 245.8582,-514.1526 252,-506.5874 269.7899,-484.6749 241.1805,-464.6224 260,-443.5874 267.0368,-435.7222 277.4262,-431.6341 287.697,-429.601"/>
<polygon fill="#000000" fill-opacity="0.200000" stroke="#000000" stroke-width="2" stroke-opacity="0.200000" points="288.1171,-431.6604 293.7043,-428.6283 287.4458,-427.5144 288.1171,-431.6604"/>
</g>
<!-- log/printer.ts -->
<g id="node11" class="node">
<title>log/printer.ts</title>
<g id="a_node11"><a xlink:href="log/printer.ts" xlink:title="printer.ts">
<path fill="#ddfeff" stroke="#000000" d="M440,-452.5874C440,-452.5874 398,-452.5874 398,-452.5874 395,-452.5874 392,-449.5874 392,-446.5874 392,-446.5874 392,-440.5874 392,-440.5874 392,-437.5874 395,-434.5874 398,-434.5874 398,-434.5874 440,-434.5874 440,-434.5874 443,-434.5874 446,-437.5874 446,-440.5874 446,-440.5874 446,-446.5874 446,-446.5874 446,-449.5874 443,-452.5874 440,-452.5874"/>
<text text-anchor="middle" x="419" y="-441.3874" font-family="Helvetica,sans-Serif" font-size="9.00" fill="#000000">printer.ts</text>
</a>
</g>
</g>
<!-- log/progress.ts&#45;&gt;log/printer.ts -->
<g id="edge8" class="edge">
<title>log/progress.ts&#45;&gt;log/printer.ts</title>
<path fill="none" stroke="#000000" stroke-width="2" stroke-opacity="0.200000" d="M353.2253,-453.7588C363.5958,-452.1551 375.1784,-450.364 385.6995,-448.737"/>
<polygon fill="#000000" fill-opacity="0.200000" stroke="#000000" stroke-width="2" stroke-opacity="0.200000" points="386.1457,-450.793 391.7543,-447.8007 385.5038,-446.6424 386.1457,-450.793"/>
</g>
<!-- utils.ts -->
<g id="node8" class="node">
<title>utils.ts</title>
<g id="a_node8"><a xlink:href="utils.ts" xlink:title="utils.ts">
<path fill="#ddfeff" stroke="#000000" d="M221,-313.5874C221,-313.5874 179,-313.5874 179,-313.5874 176,-313.5874 173,-310.5874 173,-307.5874 173,-307.5874 173,-301.5874 173,-301.5874 173,-298.5874 176,-295.5874 179,-295.5874 179,-295.5874 221,-295.5874 221,-295.5874 224,-295.5874 227,-298.5874 227,-301.5874 227,-301.5874 227,-307.5874 227,-307.5874 227,-310.5874 224,-313.5874 221,-313.5874"/>
<text text-anchor="middle" x="200" y="-302.3874" font-family="Helvetica,sans-Serif" font-size="9.00" fill="#000000">utils.ts</text>
</a>
</g>
</g>
<!-- log/spinner.ts&#45;&gt;utils.ts -->
<g id="edge9" class="edge">
<title>log/spinner.ts&#45;&gt;utils.ts</title>
<path fill="none" stroke="#000000" stroke-width="2" stroke-opacity="0.200000" d="M293.7119,-421.3431C281.4906,-418.5016 268.1513,-413.6459 260,-403.5874 247.3583,-387.9878 264.7702,-329.082 252,-313.5874 248.9523,-309.8896 245.0552,-307.0698 240.768,-304.9724"/>
<polygon fill="#000000" fill-opacity="0.200000" stroke="#000000" stroke-width="2" stroke-opacity="0.200000" points="233.5495,-300.4937 227.1956,-300.6917 232.2861,-304.4992 233.5495,-300.4937"/>
<polyline fill="none" stroke="#000000" stroke-width="2" stroke-opacity="0.200000" points="232.9178,-302.4965 235.7789,-303.3989 "/>
<ellipse fill="none" stroke="#000000" stroke-width="2" stroke-opacity="0.200000" cx="238.0677" cy="-304.1208" rx="2.4" ry="2.4"/>
</g>
<!-- log/spinner.ts&#45;&gt;log/printer.ts -->
<g id="edge10" class="edge">
<title>log/spinner.ts&#45;&gt;log/printer.ts</title>
<path fill="none" stroke="#000000" stroke-width="2" stroke-opacity="0.200000" d="M350.0564,-432.9261C361.2059,-434.6502 374.1196,-436.6472 385.7356,-438.4435"/>
<polygon fill="#000000" fill-opacity="0.200000" stroke="#000000" stroke-width="2" stroke-opacity="0.200000" points="385.425,-440.5203 391.6755,-439.362 386.0669,-436.3696 385.425,-440.5203"/>
</g>
<!-- commons/ComparableVersion.ts -->
<g id="node5" class="node">
<title>commons/ComparableVersion.ts</title>
<g id="a_node5"><a xlink:href="commons/ComparableVersion.ts" xlink:title="ComparableVersion.ts">
<path fill="#ddfeff" stroke="#000000" d="M370,-285.5874C370,-285.5874 274,-285.5874 274,-285.5874 271,-285.5874 268,-282.5874 268,-279.5874 268,-279.5874 268,-273.5874 268,-273.5874 268,-270.5874 271,-267.5874 274,-267.5874 274,-267.5874 370,-267.5874 370,-267.5874 373,-267.5874 376,-270.5874 376,-273.5874 376,-273.5874 376,-279.5874 376,-279.5874 376,-282.5874 373,-285.5874 370,-285.5874"/>
<text text-anchor="middle" x="322" y="-274.3874" font-family="Helvetica,sans-Serif" font-size="9.00" fill="#000000">ComparableVersion.ts</text>
</a>
</g>
</g>
<!-- config/config.ts -->
<g id="node6" class="node">
<title>config/config.ts</title>
<g id="a_node6"><a xlink:href="config/config.ts" xlink:title="config.ts">
<path fill="#ddfeff" stroke="#000000" d="M127.5,-313.5874C127.5,-313.5874 85.5,-313.5874 85.5,-313.5874 82.5,-313.5874 79.5,-310.5874 79.5,-307.5874 79.5,-307.5874 79.5,-301.5874 79.5,-301.5874 79.5,-298.5874 82.5,-295.5874 85.5,-295.5874 85.5,-295.5874 127.5,-295.5874 127.5,-295.5874 130.5,-295.5874 133.5,-298.5874 133.5,-301.5874 133.5,-301.5874 133.5,-307.5874 133.5,-307.5874 133.5,-310.5874 130.5,-313.5874 127.5,-313.5874"/>
<text text-anchor="middle" x="106.5" y="-302.3874" font-family="Helvetica,sans-Serif" font-size="9.00" fill="#000000">config.ts</text>
</a>
</g>
</g>
<!-- config/config.ts&#45;&gt;log/spinner.ts -->
<g id="edge5" class="edge">
<title>config/config.ts&#45;&gt;log/spinner.ts</title>
<path fill="none" stroke="#000000" stroke-width="2" stroke-opacity="0.200000" d="M114.2828,-313.9278C123.2978,-324.1535 139.0914,-340.3249 156,-349.5874 194.768,-370.8245 221.2695,-343.8131 252,-375.5874 262.7921,-386.7462 249.3927,-398.2528 260,-409.5874 267.2664,-417.3521 277.6118,-421.9735 287.7746,-424.7142"/>
<polygon fill="#000000" fill-opacity="0.200000" stroke="#000000" stroke-width="2" stroke-opacity="0.200000" points="287.3902,-426.7811 293.7126,-426.12 288.3579,-422.6941 287.3902,-426.7811"/>
</g>
<!-- config/config.ts&#45;&gt;commons/ComparableVersion.ts -->
<g id="edge4" class="edge">
<title>config/config.ts&#45;&gt;commons/ComparableVersion.ts</title>
<path fill="none" stroke="#000000" stroke-width="2" stroke-opacity="0.200000" d="M132.4409,-295.5762C139.9586,-293.2799 148.2345,-291.0503 156,-289.5874 190.6223,-283.0654 229.9024,-279.8069 261.5583,-278.1828"/>
<polygon fill="#000000" fill-opacity="0.200000" stroke="#000000" stroke-width="2" stroke-opacity="0.200000" points="261.8936,-280.269 267.7842,-277.8793 261.689,-276.074 261.8936,-280.269"/>
</g>
<!-- package.json -->
<g id="node7" class="node">
<title>package.json</title>
<g id="a_node7"><a xlink:href="package.json" xlink:title="package.json">
<path fill="#ffee44" stroke="#000000" d="M229.5,-343.5874C229.5,-343.5874 170.5,-343.5874 170.5,-343.5874 167.5,-343.5874 164.5,-340.5874 164.5,-337.5874 164.5,-337.5874 164.5,-331.5874 164.5,-331.5874 164.5,-328.5874 167.5,-325.5874 170.5,-325.5874 170.5,-325.5874 229.5,-325.5874 229.5,-325.5874 232.5,-325.5874 235.5,-328.5874 235.5,-331.5874 235.5,-331.5874 235.5,-337.5874 235.5,-337.5874 235.5,-340.5874 232.5,-343.5874 229.5,-343.5874"/>
<text text-anchor="middle" x="200" y="-332.3874" font-family="Helvetica,sans-Serif" font-size="9.00" fill="#000000">package.json</text>
</a>
</g>
</g>
<!-- config/config.ts&#45;&gt;package.json -->
<g id="edge6" class="edge">
<title>config/config.ts&#45;&gt;package.json</title>
<path fill="none" stroke="#000000" stroke-width="2" stroke-opacity="0.200000" d="M133.5441,-313.2647C143.6465,-316.5061 155.2518,-320.2297 165.908,-323.6488"/>
<polygon fill="#000000" fill-opacity="0.200000" stroke="#000000" stroke-width="2" stroke-opacity="0.200000" points="165.3603,-325.6785 171.715,-325.512 166.6435,-321.6793 165.3603,-325.6785"/>
</g>
<!-- config/config.ts&#45;&gt;utils.ts -->
<g id="edge7" class="edge">
<title>config/config.ts&#45;&gt;utils.ts</title>
<path fill="none" stroke="#000000" stroke-width="2" stroke-opacity="0.200000" d="M133.5441,-304.5874C143.8235,-304.5874 155.6588,-304.5874 166.4672,-304.5874"/>
<polygon fill="#000000" fill-opacity="0.200000" stroke="#000000" stroke-width="2" stroke-opacity="0.200000" points="166.6928,-306.6875 172.6928,-304.5874 166.6928,-302.4875 166.6928,-306.6875"/>
</g>
<!-- utils.ts&#45;&gt;log/spinner.ts -->
<g id="edge41" class="edge">
<title>utils.ts&#45;&gt;log/spinner.ts</title>
<path fill="none" stroke="#000000" stroke-width="2" stroke-opacity="0.200000" d="M227.1956,-311.9327C236.4114,-314.3082 245.9047,-318.1918 252,-325.5874 264.7702,-341.082 247.3583,-399.9878 260,-415.5874 265.1582,-421.9526 272.394,-426.2342 280.1093,-428.9648"/>
<polygon fill="#000000" fill-opacity="0.200000" stroke="#000000" stroke-width="2" stroke-opacity="0.200000" points="287.3863,-432.8856 293.7119,-432.2553 288.3739,-428.8034 287.3863,-432.8856"/>
<polyline fill="none" stroke="#000000" stroke-width="2" stroke-opacity="0.200000" points="287.8801,-430.8445 284.9642,-430.1391 "/>
<ellipse fill="none" stroke="#000000" stroke-width="2" stroke-opacity="0.200000" cx="282.6315" cy="-429.5748" rx="2.4" ry="2.4"/>
</g>
<!-- utils.ts&#45;&gt;commons/ComparableVersion.ts -->
<g id="edge39" class="edge">
<title>utils.ts&#45;&gt;commons/ComparableVersion.ts</title>
<path fill="none" stroke="#000000" stroke-width="2" stroke-opacity="0.200000" d="M227.0758,-298.3733C241.5807,-295.0443 259.8381,-290.8541 276.4568,-287.04"/>
<polygon fill="#000000" fill-opacity="0.200000" stroke="#000000" stroke-width="2" stroke-opacity="0.200000" points="277.1172,-289.0431 282.4954,-285.6541 276.1777,-284.9495 277.1172,-289.0431"/>
</g>
<!-- interfaces.ts -->
<g id="node10" class="node">
<title>interfaces.ts</title>
<g id="a_node10"><a xlink:href="interfaces.ts" xlink:title="interfaces.ts">
<path fill="#ddfeff" stroke="#000000" d="M348.5,-403.5874C348.5,-403.5874 295.5,-403.5874 295.5,-403.5874 292.5,-403.5874 289.5,-400.5874 289.5,-397.5874 289.5,-397.5874 289.5,-391.5874 289.5,-391.5874 289.5,-388.5874 292.5,-385.5874 295.5,-385.5874 295.5,-385.5874 348.5,-385.5874 348.5,-385.5874 351.5,-385.5874 354.5,-388.5874 354.5,-391.5874 354.5,-391.5874 354.5,-397.5874 354.5,-397.5874 354.5,-400.5874 351.5,-403.5874 348.5,-403.5874"/>
<text text-anchor="middle" x="322" y="-392.3874" font-family="Helvetica,sans-Serif" font-size="9.00" fill="#000000">interfaces.ts</text>
</a>
</g>
</g>
<!-- utils.ts&#45;&gt;interfaces.ts -->
<g id="edge40" class="edge">
<title>utils.ts&#45;&gt;interfaces.ts</title>
<path fill="none" stroke="#000000" stroke-width="2" stroke-opacity="0.200000" d="M227.072,-309.4563C235.4614,-311.719 244.472,-314.9683 252,-319.5874 277.7781,-335.4046 300.1566,-363.2362 312.304,-380.1849"/>
<polygon fill="#000000" fill-opacity="0.200000" stroke="#000000" stroke-width="2" stroke-opacity="0.200000" points="310.8559,-381.7773 316.0214,-385.4824 314.2939,-379.3647 310.8559,-381.7773"/>
</g>
<!-- fs -->
<g id="node9" class="node">
<title>fs</title>
<path fill="#ffffcc" stroke="#c0c0c0" d="M343,-36.5874C343,-36.5874 301,-36.5874 301,-36.5874 298,-36.5874 295,-33.5874 295,-30.5874 295,-30.5874 295,-24.5874 295,-24.5874 295,-21.5874 298,-18.5874 301,-18.5874 301,-18.5874 343,-18.5874 343,-18.5874 346,-18.5874 349,-21.5874 349,-24.5874 349,-24.5874 349,-30.5874 349,-30.5874 349,-33.5874 346,-36.5874 343,-36.5874"/>
<text text-anchor="middle" x="322" y="-25.3874" font-family="Helvetica,sans-Serif" font-size="9.00" fill="#c0c0c0">fs</text>
</g>
<!-- path -->
<g id="node12" class="node">
<title>path</title>
<path fill="#ffffcc" stroke="#c0c0c0" d="M221,-257.5874C221,-257.5874 179,-257.5874 179,-257.5874 176,-257.5874 173,-254.5874 173,-251.5874 173,-251.5874 173,-245.5874 173,-245.5874 173,-242.5874 176,-239.5874 179,-239.5874 179,-239.5874 221,-239.5874 221,-239.5874 224,-239.5874 227,-242.5874 227,-245.5874 227,-245.5874 227,-251.5874 227,-251.5874 227,-254.5874 224,-257.5874 221,-257.5874"/>
<text text-anchor="middle" x="200" y="-246.3874" font-family="Helvetica,sans-Serif" font-size="9.00" fill="#c0c0c0">path</text>
</g>
<!-- rusted.ts -->
<g id="node13" class="node">
<title>rusted.ts</title>
<g id="a_node13"><a xlink:href="rusted.ts" xlink:title="rusted.ts">
<path fill="#ddfeff" stroke="#000000" d="M48,-257.5874C48,-257.5874 6,-257.5874 6,-257.5874 3,-257.5874 0,-254.5874 0,-251.5874 0,-251.5874 0,-245.5874 0,-245.5874 0,-242.5874 3,-239.5874 6,-239.5874 6,-239.5874 48,-239.5874 48,-239.5874 51,-239.5874 54,-242.5874 54,-245.5874 54,-245.5874 54,-251.5874 54,-251.5874 54,-254.5874 51,-257.5874 48,-257.5874"/>
<text text-anchor="middle" x="27" y="-246.3874" font-family="Helvetica,sans-Serif" font-size="9.00" fill="#000000">rusted.ts</text>
</a>
</g>
</g>
<!-- rusted.ts&#45;&gt;api.ts -->
<g id="edge11" class="edge">
<title>rusted.ts&#45;&gt;api.ts</title>
<path fill="none" stroke="#000000" stroke-width="2" stroke-opacity="0.200000" d="M27.801,-257.6314C30.8546,-290.5645 42.5817,-403.7143 62,-433.5874 87.6938,-473.1149 137.2378,-499.3847 169.4424,-513.1352"/>
<polygon fill="#000000" fill-opacity="0.200000" stroke="#000000" stroke-width="2" stroke-opacity="0.200000" points="168.8983,-515.1837 175.2442,-515.5574 170.5164,-511.3079 168.8983,-515.1837"/>
</g>
<!-- rusted.ts&#45;&gt;log/spinner.ts -->
<g id="edge13" class="edge">
<title>rusted.ts&#45;&gt;log/spinner.ts</title>
<path fill="none" stroke="#000000" stroke-width="2" stroke-opacity="0.200000" d="M27.426,-257.5993C29.3443,-295.1641 38.1496,-439.0754 62,-476.5874 88.9842,-519.0284 107.8829,-524.9544 156,-539.5874 196.8207,-552.0016 220.6024,-568.4774 252,-539.5874 267.7532,-525.0924 246.0739,-459.8459 260,-443.5874 266.9256,-435.5019 277.3928,-431.3737 287.765,-429.3709"/>
<polygon fill="#000000" fill-opacity="0.200000" stroke="#000000" stroke-width="2" stroke-opacity="0.200000" points="288.2293,-431.4239 293.8335,-428.4234 287.5813,-427.2742 288.2293,-431.4239"/>
</g>
<!-- rusted.ts&#45;&gt;config/config.ts -->
<g id="edge12" class="edge">
<title>rusted.ts&#45;&gt;config/config.ts</title>
<path fill="none" stroke="#000000" stroke-width="2" stroke-opacity="0.200000" d="M40.1278,-257.8347C53.3253,-267.1311 73.769,-281.5316 88.48,-291.8941"/>
<polygon fill="#000000" fill-opacity="0.200000" stroke="#000000" stroke-width="2" stroke-opacity="0.200000" points="87.5019,-293.7738 93.6165,-295.5122 89.9206,-290.3401 87.5019,-293.7738"/>
</g>
<!-- rusted.ts&#45;&gt;fs -->
<g id="edge17" class="edge">
<title>rusted.ts&#45;&gt;fs</title>
<path fill="none" stroke="#000000" stroke-dasharray="5,2" stroke-opacity="0.200000" d="M27.2532,-239.1917C28.4309,-202.6804 34.5487,-70.8077 62,-41.5874 120.0842,20.2396 232.7267,-1.0555 288.7263,-16.8304"/>
<polygon fill="#000000" fill-opacity="0.200000" stroke="#000000" stroke-opacity="0.200000" points="288.2698,-18.8843 294.6168,-18.5285 289.4333,-14.8486 288.2698,-18.8843"/>
</g>
<!-- rusted.ts&#45;&gt;path -->
<g id="edge18" class="edge">
<title>rusted.ts&#45;&gt;path</title>
<path fill="none" stroke="#000000" stroke-dasharray="5,2" stroke-opacity="0.200000" d="M54.0313,-248.5874C84.4117,-248.5874 133.7614,-248.5874 166.5478,-248.5874"/>
<polygon fill="#000000" fill-opacity="0.200000" stroke="#000000" stroke-opacity="0.200000" points="166.8737,-250.6875 172.8737,-248.5874 166.8736,-246.4875 166.8737,-250.6875"/>
</g>
<!-- store/importStore.ts -->
<g id="node14" class="node">
<title>store/importStore.ts</title>
<g id="a_node14"><a xlink:href="store/importStore.ts" xlink:title="importStore.ts">
<path fill="#ddfeff" stroke="#000000" d="M137,-205.5874C137,-205.5874 76,-205.5874 76,-205.5874 73,-205.5874 70,-202.5874 70,-199.5874 70,-199.5874 70,-193.5874 70,-193.5874 70,-190.5874 73,-187.5874 76,-187.5874 76,-187.5874 137,-187.5874 137,-187.5874 140,-187.5874 143,-190.5874 143,-193.5874 143,-193.5874 143,-199.5874 143,-199.5874 143,-202.5874 140,-205.5874 137,-205.5874"/>
<text text-anchor="middle" x="106.5" y="-194.3874" font-family="Helvetica,sans-Serif" font-size="9.00" fill="#000000">importStore.ts</text>
</a>
</g>
</g>
<!-- rusted.ts&#45;&gt;store/importStore.ts -->
<g id="edge14" class="edge">
<title>rusted.ts&#45;&gt;store/importStore.ts</title>
<path fill="none" stroke="#000000" stroke-width="2" stroke-opacity="0.200000" d="M40.8478,-239.5297C53.7643,-231.0812 73.1437,-218.4054 87.5025,-209.0135"/>
<polygon fill="#000000" fill-opacity="0.200000" stroke="#000000" stroke-width="2" stroke-opacity="0.200000" points="88.6724,-210.7577 92.5441,-205.7158 86.3733,-207.2428 88.6724,-210.7577"/>
</g>
<!-- store/store.ts -->
<g id="node15" class="node">
<title>store/store.ts</title>
<g id="a_node15"><a xlink:href="store/store.ts" xlink:title="store.ts">
<path fill="#ddfeff" stroke="#000000" d="M127.5,-175.5874C127.5,-175.5874 85.5,-175.5874 85.5,-175.5874 82.5,-175.5874 79.5,-172.5874 79.5,-169.5874 79.5,-169.5874 79.5,-163.5874 79.5,-163.5874 79.5,-160.5874 82.5,-157.5874 85.5,-157.5874 85.5,-157.5874 127.5,-157.5874 127.5,-157.5874 130.5,-157.5874 133.5,-160.5874 133.5,-163.5874 133.5,-163.5874 133.5,-169.5874 133.5,-169.5874 133.5,-172.5874 130.5,-175.5874 127.5,-175.5874"/>
<text text-anchor="middle" x="106.5" y="-164.3874" font-family="Helvetica,sans-Serif" font-size="9.00" fill="#000000">store.ts</text>
</a>
</g>
</g>
<!-- rusted.ts&#45;&gt;store/store.ts -->
<g id="edge15" class="edge">
<title>rusted.ts&#45;&gt;store/store.ts</title>
<path fill="none" stroke="#000000" stroke-width="2" stroke-opacity="0.200000" d="M29.3925,-239.3924C33.5941,-225.0252 43.6447,-197.2771 62,-181.5874 65.4085,-178.6739 69.4065,-176.3199 73.5832,-174.4196"/>
<polygon fill="#000000" fill-opacity="0.200000" stroke="#000000" stroke-width="2" stroke-opacity="0.200000" points="74.5684,-176.2869 79.3511,-172.0993 73.0009,-172.3903 74.5684,-176.2869"/>
</g>
<!-- versions.ts -->
<g id="node16" class="node">
<title>versions.ts</title>
<g id="a_node16"><a xlink:href="versions.ts" xlink:title="versions.ts">
<path fill="#ddfeff" stroke="#000000" d="M130.5,-427.5874C130.5,-427.5874 82.5,-427.5874 82.5,-427.5874 79.5,-427.5874 76.5,-424.5874 76.5,-421.5874 76.5,-421.5874 76.5,-415.5874 76.5,-415.5874 76.5,-412.5874 79.5,-409.5874 82.5,-409.5874 82.5,-409.5874 130.5,-409.5874 130.5,-409.5874 133.5,-409.5874 136.5,-412.5874 136.5,-415.5874 136.5,-415.5874 136.5,-421.5874 136.5,-421.5874 136.5,-424.5874 133.5,-427.5874 130.5,-427.5874"/>
<text text-anchor="middle" x="106.5" y="-416.3874" font-family="Helvetica,sans-Serif" font-size="9.00" fill="#000000">versions.ts</text>
</a>
</g>
</g>
<!-- rusted.ts&#45;&gt;versions.ts -->
<g id="edge16" class="edge">
<title>rusted.ts&#45;&gt;versions.ts</title>
<path fill="none" stroke="#000000" stroke-width="2" stroke-opacity="0.200000" d="M29.7811,-257.6113C35.1454,-274.6093 47.6659,-312.3811 62,-342.5874 72.6253,-364.9782 87.6359,-389.4838 97.2186,-404.4493"/>
<polygon fill="#000000" fill-opacity="0.200000" stroke="#000000" stroke-width="2" stroke-opacity="0.200000" points="95.4668,-405.6077 100.4853,-409.5097 98.9955,-403.3298 95.4668,-405.6077"/>
</g>
<!-- util -->
<g id="node17" class="node">
<title>util</title>
<path fill="#ffffcc" stroke="#c0c0c0" d="M343,-103.5874C343,-103.5874 301,-103.5874 301,-103.5874 298,-103.5874 295,-100.5874 295,-97.5874 295,-97.5874 295,-91.5874 295,-91.5874 295,-88.5874 298,-85.5874 301,-85.5874 301,-85.5874 343,-85.5874 343,-85.5874 346,-85.5874 349,-88.5874 349,-91.5874 349,-91.5874 349,-97.5874 349,-97.5874 349,-100.5874 346,-103.5874 343,-103.5874"/>
<text text-anchor="middle" x="322" y="-92.3874" font-family="Helvetica,sans-Serif" font-size="9.00" fill="#c0c0c0">util</text>
</g>
<!-- rusted.ts&#45;&gt;util -->
<g id="edge19" class="edge">
<title>rusted.ts&#45;&gt;util</title>
<path fill="none" stroke="#000000" stroke-dasharray="5,2" stroke-opacity="0.200000" d="M28.804,-239.4744C36.4026,-203.9744 69.5016,-74.9165 156,-34.5874 194.6701,-16.5578 212.5811,-18.2596 252,-34.5874 256.6456,-36.5117 256.2923,-39.1908 260,-42.5874 274.9976,-56.327 292.862,-71.1578 305.5535,-81.451"/>
<polygon fill="#000000" fill-opacity="0.200000" stroke="#000000" stroke-opacity="0.200000" points="304.3282,-83.1608 310.3155,-85.297 306.9672,-79.8934 304.3282,-83.1608"/>
</g>
<!-- store/importStore.ts&#45;&gt;commons/constants.ts -->
<g id="edge23" class="edge">
<title>store/importStore.ts&#45;&gt;commons/constants.ts</title>
<path fill="none" stroke="#000000" stroke-width="2" stroke-opacity="0.200000" d="M134.9828,-187.533C137.9024,-185.8574 140.6527,-183.8906 143,-181.5874 153.3723,-171.4102 143.8526,-159.5624 156,-151.5874 191.667,-128.1714 213.919,-132.3448 252,-151.5874 285.2601,-168.394 306.5957,-209.2796 316.1605,-231.5408"/>
<polygon fill="#000000" fill-opacity="0.200000" stroke="#000000" stroke-width="2" stroke-opacity="0.200000" points="314.3069,-232.5533 318.5462,-237.2902 318.1862,-230.9435 314.3069,-232.5533"/>
</g>
<!-- store/importStore.ts&#45;&gt;utils.ts -->
<g id="edge24" class="edge">
<title>store/importStore.ts&#45;&gt;utils.ts</title>
<path fill="none" stroke="#000000" stroke-width="2" stroke-opacity="0.200000" d="M112.4154,-205.6605C121.2379,-218.9303 138.6694,-244.1629 156,-263.5874 164.7976,-273.448 175.6507,-283.5798 184.3766,-291.3046"/>
<polygon fill="#000000" fill-opacity="0.200000" stroke="#000000" stroke-width="2" stroke-opacity="0.200000" points="183.0806,-292.9609 188.979,-295.3315 185.8462,-289.8 183.0806,-292.9609"/>
</g>
<!-- store/importStore.ts&#45;&gt;fs -->
<g id="edge27" class="edge">
<title>store/importStore.ts&#45;&gt;fs</title>
<path fill="none" stroke="#000000" stroke-dasharray="5,2" stroke-opacity="0.200000" d="M136.6244,-187.3907C139.0264,-185.759 141.2109,-183.8411 143,-181.5874 165.3969,-153.3747 134.0205,-130.1266 156,-101.5874 188.5298,-59.3492 250.4304,-40.631 288.762,-32.7854"/>
<polygon fill="#000000" fill-opacity="0.200000" stroke="#000000" stroke-opacity="0.200000" points="289.2212,-34.8354 294.7035,-31.6176 288.4112,-30.7142 289.2212,-34.8354"/>
</g>
<!-- store/importStore.ts&#45;&gt;path -->
<g id="edge28" class="edge">
<title>store/importStore.ts&#45;&gt;path</title>
<path fill="none" stroke="#000000" stroke-dasharray="5,2" stroke-opacity="0.200000" d="M116.401,-205.8704C125.9154,-214.3631 141.0197,-226.7621 156,-234.5874 159.5326,-236.4328 163.3527,-238.0894 167.2154,-239.561"/>
<polygon fill="#000000" fill-opacity="0.200000" stroke="#000000" stroke-opacity="0.200000" points="166.5198,-241.5425 172.8766,-241.5852 167.9339,-237.5877 166.5198,-241.5425"/>
</g>
<!-- store/importStore.ts&#45;&gt;util -->
<g id="edge29" class="edge">
<title>store/importStore.ts&#45;&gt;util</title>
<path fill="none" stroke="#000000" stroke-dasharray="5,2" stroke-opacity="0.200000" d="M136.046,-187.4266C138.6293,-185.7837 141.0121,-183.8535 143,-181.5874 157.8585,-164.6499 139.7972,-148.2439 156,-132.5874 174.6938,-114.5239 246.034,-103.3461 288.8719,-98.1176"/>
<polygon fill="#000000" fill-opacity="0.200000" stroke="#000000" stroke-opacity="0.200000" points="289.2669,-100.1855 294.9758,-97.3893 288.7692,-96.0151 289.2669,-100.1855"/>
</g>
<!-- store/downloadStore.ts -->
<g id="node19" class="node">
<title>store/downloadStore.ts</title>
<g id="a_node19"><a xlink:href="store/downloadStore.ts" xlink:title="downloadStore.ts">
<path fill="#ddfeff" stroke="#000000" d="M238,-205.5874C238,-205.5874 162,-205.5874 162,-205.5874 159,-205.5874 156,-202.5874 156,-199.5874 156,-199.5874 156,-193.5874 156,-193.5874 156,-190.5874 159,-187.5874 162,-187.5874 162,-187.5874 238,-187.5874 238,-187.5874 241,-187.5874 244,-190.5874 244,-193.5874 244,-193.5874 244,-199.5874 244,-199.5874 244,-202.5874 241,-205.5874 238,-205.5874"/>
<text text-anchor="middle" x="200" y="-194.3874" font-family="Helvetica,sans-Serif" font-size="9.00" fill="#000000">downloadStore.ts</text>
</a>
</g>
</g>
<!-- store/importStore.ts&#45;&gt;store/downloadStore.ts -->
<g id="edge25" class="edge">
<title>store/importStore.ts&#45;&gt;store/downloadStore.ts</title>
<path fill="none" stroke="#000000" stroke-width="2" stroke-opacity="0.200000" d="M143.1853,-196.5874C145.414,-196.5874 147.6748,-196.5874 149.946,-196.5874"/>
<polygon fill="#000000" fill-opacity="0.200000" stroke="#000000" stroke-width="2" stroke-opacity="0.200000" points="149.9676,-198.6875 155.9676,-196.5874 149.9675,-194.4875 149.9676,-198.6875"/>
</g>
<!-- store/readStore.ts -->
<g id="node20" class="node">
<title>store/readStore.ts</title>
<g id="a_node20"><a xlink:href="store/readStore.ts" xlink:title="readStore.ts">
<path fill="#ddfeff" stroke="#000000" d="M227,-175.5874C227,-175.5874 173,-175.5874 173,-175.5874 170,-175.5874 167,-172.5874 167,-169.5874 167,-169.5874 167,-163.5874 167,-163.5874 167,-160.5874 170,-157.5874 173,-157.5874 173,-157.5874 227,-157.5874 227,-157.5874 230,-157.5874 233,-160.5874 233,-163.5874 233,-163.5874 233,-169.5874 233,-169.5874 233,-172.5874 230,-175.5874 227,-175.5874"/>
<text text-anchor="middle" x="200" y="-164.3874" font-family="Helvetica,sans-Serif" font-size="9.00" fill="#000000">readStore.ts</text>
</a>
</g>
</g>
<!-- store/importStore.ts&#45;&gt;store/readStore.ts -->
<g id="edge26" class="edge">
<title>store/importStore.ts&#45;&gt;store/readStore.ts</title>
<path fill="none" stroke="#000000" stroke-width="2" stroke-opacity="0.200000" d="M134.5531,-187.5864C144.3557,-184.4412 155.4713,-180.8747 165.7235,-177.5853"/>
<polygon fill="#000000" fill-opacity="0.200000" stroke="#000000" stroke-width="2" stroke-opacity="0.200000" points="166.572,-179.5185 171.6436,-175.6858 165.2888,-175.5193 166.572,-179.5185"/>
</g>
<!-- store/store.ts&#45;&gt;commons/constants.ts -->
<g id="edge34" class="edge">
<title>store/store.ts&#45;&gt;commons/constants.ts</title>
<path fill="none" stroke="#000000" stroke-width="2" stroke-opacity="0.200000" d="M116.1479,-157.2834C125.4835,-148.9792 140.4668,-137.4082 156,-132.5874 196.7493,-119.9407 214.7642,-111.7563 252,-132.5874 290.3049,-154.0166 310.2027,-205.9334 317.9954,-231.6464"/>
<polygon fill="#000000" fill-opacity="0.200000" stroke="#000000" stroke-width="2" stroke-opacity="0.200000" points="316.0298,-232.4081 319.7197,-237.5845 320.0632,-231.2369 316.0298,-232.4081"/>
</g>
<!-- store/store.ts&#45;&gt;utils.ts -->
<g id="edge35" class="edge">
<title>store/store.ts&#45;&gt;utils.ts</title>
<path fill="none" stroke="#000000" stroke-width="2" stroke-opacity="0.200000" d="M133.8052,-174.0328C137.314,-175.996 140.5354,-178.4705 143,-181.5874 165.8867,-210.5318 138.6682,-231.0115 156,-263.5874 161.9587,-274.787 172.1724,-284.5912 181.2601,-291.8017"/>
<polygon fill="#000000" fill-opacity="0.200000" stroke="#000000" stroke-width="2" stroke-opacity="0.200000" points="180.1132,-293.5679 186.1587,-295.5331 182.6582,-290.2268 180.1132,-293.5679"/>
</g>
<!-- store/store.ts&#45;&gt;fs -->
<g id="edge36" class="edge">
<title>store/store.ts&#45;&gt;fs</title>
<path fill="none" stroke="#000000" stroke-dasharray="5,2" stroke-opacity="0.200000" d="M108.5224,-157.5788C114.832,-130.3449 134.9925,-49.8107 156,-34.5874 194.6395,-6.587 252.66,-11.8518 288.8778,-19.0817"/>
<polygon fill="#000000" fill-opacity="0.200000" stroke="#000000" stroke-opacity="0.200000" points="288.6336,-21.1761 294.9366,-20.3502 289.4943,-17.0652 288.6336,-21.1761"/>
</g>
<!-- store/store.ts&#45;&gt;path -->
<g id="edge37" class="edge">
<title>store/store.ts&#45;&gt;path</title>
<path fill="none" stroke="#000000" stroke-dasharray="5,2" stroke-opacity="0.200000" d="M133.5762,-174.2218C137.1165,-176.1589 140.4077,-178.5758 143,-181.5874 158.8224,-199.9694 139.4386,-216.8683 156,-234.5874 159.0858,-237.889 162.9464,-240.4154 167.0907,-242.3479"/>
<polygon fill="#000000" fill-opacity="0.200000" stroke="#000000" stroke-opacity="0.200000" points="166.52,-244.3803 172.8719,-244.632 168.0633,-240.4741 166.52,-244.3803"/>
</g>
<!-- store/store.ts&#45;&gt;util -->
<g id="edge38" class="edge">
<title>store/store.ts&#45;&gt;util</title>
<path fill="none" stroke="#000000" stroke-dasharray="5,2" stroke-opacity="0.200000" d="M107.1515,-157.5558C109.3351,-134.8294 118.5463,-75.3263 156,-50.5874 191.6015,-27.072 211.0018,-38.7724 252,-50.5874 272.7001,-56.5529 293.1872,-70.6459 306.5969,-81.2868"/>
<polygon fill="#000000" fill-opacity="0.200000" stroke="#000000" stroke-opacity="0.200000" points="305.5675,-83.1565 311.5469,-85.3147 308.2185,-79.8988 305.5675,-83.1565"/>
</g>
<!-- versions.ts&#45;&gt;api.ts -->
<g id="edge42" class="edge">
<title>versions.ts&#45;&gt;api.ts</title>
<path fill="none" stroke="#000000" stroke-width="2" stroke-opacity="0.200000" d="M113.2216,-427.9663C120.9734,-439.022 133.8257,-458.1073 143,-475.5874 149.943,-488.8163 145.3895,-496.0695 156,-506.5874 159.2238,-509.7832 163.0934,-512.4366 167.1824,-514.6332"/>
<polygon fill="#000000" fill-opacity="0.200000" stroke="#000000" stroke-width="2" stroke-opacity="0.200000" points="166.5361,-516.6522 172.8542,-517.3534 168.3524,-512.8652 166.5361,-516.6522"/>
</g>
<!-- versions.ts&#45;&gt;commons/constants.ts -->
<g id="edge44" class="edge">
<title>versions.ts&#45;&gt;commons/constants.ts</title>
<path fill="none" stroke="#000000" stroke-width="2" stroke-opacity="0.200000" d="M136.674,-420.3103C174.6022,-421.7561 236.6186,-421.4947 252,-405.5874 274.2783,-382.5475 239.4894,-286.2141 260,-261.5874 265.8719,-254.5371 274.4371,-250.4792 283.3372,-248.2152"/>
<polygon fill="#000000" fill-opacity="0.200000" stroke="#000000" stroke-width="2" stroke-opacity="0.200000" points="283.7738,-250.2694 289.2093,-246.9731 282.9046,-246.1603 283.7738,-250.2694"/>
</g>
<!-- versions.ts&#45;&gt;log/spinner.ts -->
<g id="edge46" class="edge">
<title>versions.ts&#45;&gt;log/spinner.ts</title>
<path fill="none" stroke="#000000" stroke-width="2" stroke-opacity="0.200000" d="M110.6248,-427.9337C117.5825,-442.3764 133.1632,-469.5977 156,-480.5874 194.4465,-499.0891 218.7948,-507.3804 252,-480.5874 265.0935,-470.0224 248.2496,-455.6286 260,-443.5874 267.3061,-436.1006 277.6619,-432.0965 287.8221,-430.0245"/>
<polygon fill="#000000" fill-opacity="0.200000" stroke="#000000" stroke-width="2" stroke-opacity="0.200000" points="288.1937,-432.0915 293.7571,-429.016 287.4901,-427.9509 288.1937,-432.0915"/>
</g>
<!-- versions.ts&#45;&gt;commons/ComparableVersion.ts -->
<g id="edge43" class="edge">
<title>versions.ts&#45;&gt;commons/ComparableVersion.ts</title>
<path fill="none" stroke="#000000" stroke-width="2" stroke-opacity="0.200000" d="M126.13,-427.6756C156.8667,-440.3935 216.5017,-458.7601 252,-428.5874 268.8133,-414.2966 252.3954,-400.3018 260,-379.5874 272.6236,-345.2017 297.0775,-309.5546 311.2084,-290.5361"/>
<polygon fill="#000000" fill-opacity="0.200000" stroke="#000000" stroke-width="2" stroke-opacity="0.200000" points="312.9723,-291.6847 314.902,-285.6277 309.6163,-289.1593 312.9723,-291.6847"/>
</g>
<!-- versions.ts&#45;&gt;utils.ts -->
<g id="edge49" class="edge">
<title>versions.ts&#45;&gt;utils.ts</title>
<path fill="none" stroke="#000000" stroke-width="2" stroke-opacity="0.200000" d="M110.8346,-409.4544C122.202,-385.568 152.2548,-322.858 156,-319.5874 159.2598,-316.7407 163.0846,-314.4284 167.0947,-312.5516"/>
<polygon fill="#000000" fill-opacity="0.200000" stroke="#000000" stroke-width="2" stroke-opacity="0.200000" points="167.903,-314.4899 172.6421,-310.2529 166.2952,-310.6098 167.903,-314.4899"/>
</g>
<!-- versions.ts&#45;&gt;interfaces.ts -->
<g id="edge45" class="edge">
<title>versions.ts&#45;&gt;interfaces.ts</title>
<path fill="none" stroke="#000000" stroke-width="2" stroke-opacity="0.200000" d="M115.341,-427.76C124.5377,-436.5816 139.8315,-449.3297 156,-454.5874 196.5753,-467.7819 219.3476,-482.0513 252,-454.5874 267.8808,-441.2301 245.6972,-423.6223 260,-408.5874 266.1797,-402.0915 274.6821,-398.3087 283.4104,-396.1712"/>
<polygon fill="#000000" fill-opacity="0.200000" stroke="#000000" stroke-width="2" stroke-opacity="0.200000" points="284.0018,-398.194 289.4633,-394.9411 283.1653,-394.0781 284.0018,-398.194"/>
</g>
<!-- versions.ts&#45;&gt;store/store.ts -->
<g id="edge48" class="edge">
<title>versions.ts&#45;&gt;store/store.ts</title>
<path fill="none" stroke="#000000" stroke-width="2" stroke-opacity="0.200000" d="M98.6766,-409.2719C87.106,-394.8189 65.9439,-365.6228 58,-336.5874 53.6311,-320.6188 53.2025,-203.4326 58,-187.5874 60.2883,-180.0296 66.5195,-175.1799 73.7838,-172.0718"/>
<polygon fill="#000000" fill-opacity="0.200000" stroke="#000000" stroke-width="2" stroke-opacity="0.200000" points="74.557,-174.0255 79.492,-170.0185 73.1353,-170.0734 74.557,-174.0255"/>
</g>
<!-- select.ts -->
<g id="node18" class="node">
<title>select.ts</title>
<g id="a_node18"><a xlink:href="select.ts" xlink:title="select.ts">
<path fill="#ddfeff" stroke="#000000" d="M221,-399.5874C221,-399.5874 179,-399.5874 179,-399.5874 176,-399.5874 173,-396.5874 173,-393.5874 173,-393.5874 173,-387.5874 173,-387.5874 173,-384.5874 176,-381.5874 179,-381.5874 179,-381.5874 221,-381.5874 221,-381.5874 224,-381.5874 227,-384.5874 227,-387.5874 227,-387.5874 227,-393.5874 227,-393.5874 227,-396.5874 224,-399.5874 221,-399.5874"/>
<text text-anchor="middle" x="200" y="-388.3874" font-family="Helvetica,sans-Serif" font-size="9.00" fill="#000000">select.ts</text>
</a>
</g>
</g>
<!-- versions.ts&#45;&gt;select.ts -->
<g id="edge47" class="edge">
<title>versions.ts&#45;&gt;select.ts</title>
<path fill="none" stroke="#000000" stroke-width="2" stroke-opacity="0.200000" d="M136.5987,-409.5739C146.2363,-406.6878 156.9599,-403.4764 166.8055,-400.528"/>
<polygon fill="#000000" fill-opacity="0.200000" stroke="#000000" stroke-width="2" stroke-opacity="0.200000" points="167.6595,-402.4645 172.8048,-398.7315 166.4545,-398.4411 167.6595,-402.4645"/>
</g>
<!-- store/downloadStore.ts&#45;&gt;api.ts -->
<g id="edge20" class="edge">
<title>store/downloadStore.ts&#45;&gt;api.ts</title>
<path fill="none" stroke="#000000" stroke-width="2" stroke-opacity="0.200000" d="M182.7775,-205.6632C170.8786,-213.0169 156.0581,-224.6088 149.5,-239.5874 143.6844,-252.8701 143.6844,-487.3048 149.5,-500.5874 152.8196,-508.1694 159.5301,-513.3631 167.0044,-516.9185"/>
<polygon fill="#000000" fill-opacity="0.200000" stroke="#000000" stroke-width="2" stroke-opacity="0.200000" points="166.4786,-518.9737 172.8255,-519.3303 168.0863,-515.0935 166.4786,-518.9737"/>
</g>
<!-- store/downloadStore.ts&#45;&gt;commons/constants.ts -->
<g id="edge21" class="edge">
<title>store/downloadStore.ts&#45;&gt;commons/constants.ts</title>
<path fill="none" stroke="#000000" stroke-width="2" stroke-opacity="0.200000" d="M222.0933,-205.6421C242.2639,-213.9087 272.1755,-226.1676 294.0112,-235.1166"/>
<polygon fill="#000000" fill-opacity="0.200000" stroke="#000000" stroke-width="2" stroke-opacity="0.200000" points="293.3106,-237.099 299.6588,-237.4312 294.9034,-233.2127 293.3106,-237.099"/>
</g>
<!-- store/downloadStore.ts&#45;&gt;log/spinner.ts -->
<g id="edge22" class="edge">
<title>store/downloadStore.ts&#45;&gt;log/spinner.ts</title>
<path fill="none" stroke="#000000" stroke-width="2" stroke-opacity="0.200000" d="M220.6462,-205.604C232.0109,-211.7395 245.1614,-221.0366 252,-233.5874 261.3661,-250.7771 248.0066,-394.1159 260,-409.5874 266.6883,-418.2154 277.2053,-423.0332 287.691,-425.6893"/>
<polygon fill="#000000" fill-opacity="0.200000" stroke="#000000" stroke-width="2" stroke-opacity="0.200000" points="287.5238,-427.8015 293.832,-427.0159 288.4107,-423.6962 287.5238,-427.8015"/>
</g>
<!-- store/readStore.ts&#45;&gt;commons/constants.ts -->
<g id="edge30" class="edge">
<title>store/readStore.ts&#45;&gt;commons/constants.ts</title>
<path fill="none" stroke="#000000" stroke-width="2" stroke-opacity="0.200000" d="M233.1213,-173.6219C239.6071,-175.688 246.1929,-178.304 252,-181.5874 275.6056,-194.9346 297.6144,-217.7499 310.4357,-232.4927"/>
<polygon fill="#000000" fill-opacity="0.200000" stroke="#000000" stroke-width="2" stroke-opacity="0.200000" points="308.9268,-233.9595 314.4206,-237.1577 312.1203,-231.2316 308.9268,-233.9595"/>
</g>
<!-- store/readStore.ts&#45;&gt;log/spinner.ts -->
<g id="edge31" class="edge">
<title>store/readStore.ts&#45;&gt;log/spinner.ts</title>
<path fill="none" stroke="#000000" stroke-width="2" stroke-opacity="0.200000" d="M233.114,-169.6204C240.3939,-171.8818 247.3187,-175.5868 252,-181.5874 267.5922,-201.5737 244.5735,-389.473 260,-409.5874 266.6435,-418.2499 277.1498,-423.076 287.6392,-425.7292"/>
<polygon fill="#000000" fill-opacity="0.200000" stroke="#000000" stroke-width="2" stroke-opacity="0.200000" points="287.4762,-427.8422 293.784,-427.0529 288.3607,-423.7364 287.4762,-427.8422"/>
</g>
<!-- store/readStore.ts&#45;&gt;fs -->
<g id="edge32" class="edge">
<title>store/readStore.ts&#45;&gt;fs</title>
<path fill="none" stroke="#000000" stroke-dasharray="5,2" stroke-opacity="0.200000" d="M207.6859,-157.4916C218.4262,-144.5194 238.1597,-119.7092 252,-96.5874 256.2888,-89.4226 254.9043,-86.2027 260,-79.5874 272.0337,-63.9653 289.5109,-49.8413 302.8443,-40.2692"/>
<polygon fill="#000000" fill-opacity="0.200000" stroke="#000000" stroke-opacity="0.200000" points="304.2126,-41.8742 307.9126,-36.705 301.7966,-38.4387 304.2126,-41.8742"/>
</g>
<!-- store/readStore.ts&#45;&gt;util -->
<g id="edge33" class="edge">
<title>store/readStore.ts&#45;&gt;util</title>
<path fill="none" stroke="#000000" stroke-dasharray="5,2" stroke-opacity="0.200000" d="M215.4514,-157.4686C237.2686,-144.5929 277.1463,-121.0585 301.4432,-106.7193"/>
<polygon fill="#000000" fill-opacity="0.200000" stroke="#000000" stroke-opacity="0.200000" points="302.5742,-108.4904 306.6741,-103.6322 300.4395,-104.8733 302.5742,-108.4904"/>
</g>
</g>
</svg>
